<svg width="88" height="88" viewBox="0 0 88 88" fill="none" xmlns="http://www.w3.org/2000/svg">
<g clip-path="url(#clip0_47_500)">
<path d="M44 88C68.3005 88 88 68.3005 88 44C88 19.6995 68.3005 0 44 0C19.6995 0 0 19.6995 0 44C0 68.3005 19.6995 88 44 88Z" fill="#FCF7F2"/>
<path d="M44.8999 24.5C45.2999 25 45.6999 25.4 45.9999 25.9C48.3999 29 50.6999 32.2 52.6999 35.6C54.4999 38.7 56.1999 41.8 57.2999 45.2C57.9999 47.4 58.2999 49.5 58.0999 51.8C57.8999 54.7 56.9999 57.3 55.1999 59.6C53.2999 62 50.7999 63.5 47.7999 64.1C43.3999 65.1 39.3999 64.1 35.9999 61.2C33.4999 59.1 32.1999 56.4 31.5999 53.2C30.9999 50.1 31.4999 47.1 32.5999 44.1C33.7999 40.9 35.2999 38 37.0999 35.1C39.2999 31.5 41.7999 28 44.4999 24.8C44.6999 24.7 44.7999 24.6 44.8999 24.5Z" stroke="#271B16" stroke-width="2" stroke-miterlimit="10"/>
<path d="M32 51C32.7 52 33.8 53.3 35.5 54C38.2 55.2 40.6 55.2 45 53C53 49 59 52 59 52C59 52 58.6 52 58 52C58 52.9 57.8 57.6 54 61C50.2 64.4 45.5 64.1 44 64C42.5 63.9 39.3 63.6 36.5 61.3C32 57.6 32 51.9 32 51Z" fill="#271B16"/>
<path d="M40.4 36.4C40.3 35 41.1 33.6 42.3 32.9" stroke="#271B16" stroke-width="0.75" stroke-miterlimit="10" stroke-linecap="round"/>
</g>
<defs>
<clipPath id="clip0_47_500">
<rect width="88" height="88" fill="white"/>
</clipPath>
</defs>
</svg>
