<svg width="88" height="88" viewBox="0 0 88 88" fill="none" xmlns="http://www.w3.org/2000/svg">
<g clip-path="url(#clip0_51_88)">
<path d="M44 88C68.3005 88 88 68.3005 88 44C88 19.6995 68.3005 0 44 0C19.6995 0 0 19.6995 0 44C0 68.3005 19.6995 88 44 88Z" fill="#FCF7F2"/>
<path d="M16.2 39.1C25.1 37.1 34.4999 35.1 43.0999 38.1C52.9999 41.6 59.9999 51.2 70.0999 53.7C71.5999 54.1 71.4 54.8 72.9 54.9" fill="#FCF7F2"/>
<path d="M16.2 39.1C25.1 37.1 34.4999 35.1 43.0999 38.1C52.9999 41.6 59.9999 51.2 70.0999 53.7C71.5999 54.1 71.4 54.8 72.9 54.9" stroke="#271B16" stroke-width="3.5378" stroke-miterlimit="10" stroke-linecap="round"/>
<path d="M34.8999 42C36.8329 42 38.3999 40.433 38.3999 38.5C38.3999 36.567 36.8329 35 34.8999 35C32.9669 35 31.3999 36.567 31.3999 38.5C31.3999 40.433 32.9669 42 34.8999 42Z" fill="#932B02"/>
<path d="M13.8999 43.5C15.8329 43.5 17.3999 41.933 17.3999 40C17.3999 38.067 15.8329 36.5 13.8999 36.5C11.9669 36.5 10.3999 38.067 10.3999 40C10.3999 41.933 11.9669 43.5 13.8999 43.5Z" fill="#932B02"/>
<path d="M33.3999 38.2C35.3329 38.2 36.8999 36.6329 36.8999 34.7C36.8999 32.767 35.3329 31.2 33.3999 31.2C31.4669 31.2 29.8999 32.767 29.8999 34.7C29.8999 36.6329 31.4669 38.2 33.3999 38.2Z" fill="#AA3400"/>
<path d="M68.4999 52C69.3999 51.6 70.4999 51.8 71.3999 52.2C74.5999 53.5 77.1999 57.3 77.5999 60.7C74.8999 62.2 71.5999 61.8 69.3999 59.9C66.4999 57.3 67.1999 53.3 67.1999 53.2" stroke="#271B16" stroke-miterlimit="10"/>
<path d="M22.5999 37.5C21.5999 37.6 20.6999 37.1 19.8999 36.5C17.1999 34.3 15.7999 29.9 16.3999 26.5C19.3999 25.9 22.4999 27.2 23.9999 29.7C25.9999 33 24.1999 36.6 24.0999 36.8" fill="#271B16"/>
<path d="M46.3 40.8C47 41.5 47.1 42.6 47.1 43.6C47 47 44.3 50.8 41.2 52.4C38.9 50.4 38.1 47.2 39.2 44.4C40.6 40.8 44.6 40.1 44.8 40.1" stroke="#271B16" stroke-miterlimit="10"/>
<path d="M69.5999 52.4C71.5329 52.4 73.0999 50.833 73.0999 48.9C73.0999 46.967 71.5329 45.4 69.5999 45.4C67.6669 45.4 66.0999 46.967 66.0999 48.9C66.0999 50.833 67.6669 52.4 69.5999 52.4Z" fill="#AA3400"/>
<path d="M73.0999 55.9C75.0329 55.9 76.5999 54.333 76.5999 52.4C76.5999 50.467 75.0329 48.9 73.0999 48.9C71.1669 48.9 69.5999 50.467 69.5999 52.4C69.5999 54.333 71.1669 55.9 73.0999 55.9Z" fill="#932B02"/>
<path d="M52.9999 42.7C52.2999 41.9 52.2999 40.7 52.3999 39.7C52.7999 36.1 55.9999 32.3 59.3999 31C61.6999 33.4 62.1999 36.8 60.7999 39.6C58.8999 43.3 54.6999 43.7 54.4999 43.7" fill="#271B16"/>
<path d="M40.5 38.7C42.7091 38.7 44.5 36.9091 44.5 34.7C44.5 32.4908 42.7091 30.7 40.5 30.7C38.2909 30.7 36.5 32.4908 36.5 34.7C36.5 36.9091 38.2909 38.7 40.5 38.7Z" fill="#932B02"/>
<path d="M52.8999 47.1C54.8329 47.1 56.3999 45.533 56.3999 43.6C56.3999 41.667 54.8329 40.1 52.8999 40.1C50.9669 40.1 49.3999 41.667 49.3999 43.6C49.3999 45.533 50.9669 47.1 52.8999 47.1Z" fill="#932B02"/>
</g>
<defs>
<clipPath id="clip0_51_88">
<rect width="88" height="88" fill="white"/>
</clipPath>
</defs>
</svg>
