<svg width="88" height="88" viewBox="0 0 88 88" fill="none" xmlns="http://www.w3.org/2000/svg">
<g clip-path="url(#clip0_47_514)">
<path d="M44 88C68.3005 88 88 68.3005 88 44C88 19.6995 68.3005 0 44 0C19.6995 0 0 19.6995 0 44C0 68.3005 19.6995 88 44 88Z" fill="#FCF7F2"/>
<path d="M40.5001 59.9723C40.0001 53.9723 41.0001 47.8723 44.7001 43.1723C46.5001 40.8723 48.7001 39.0723 51.2001 37.6723C53.9001 36.1723 56.9001 35.2723 59.9001 34.9723" stroke="#271B16" stroke-width="2" stroke-miterlimit="10" stroke-linecap="round"/>
<path d="M41.5999 48.6724C41.3999 46.9724 41.0999 43.8724 40.7999 42.1724C40.2999 39.4724 39.8999 38.1724 38.9999 36.0724C38.7999 35.6724 38.6999 35.2724 38.4999 34.8724C37.0999 31.8724 34.0999 28.9724 30.8999 28.5724" stroke="#271B16" stroke-width="2" stroke-miterlimit="10" stroke-linecap="round"/>
<path d="M21 23.9723C22.6 23.0723 26.5 21.4723 31.3 22.1723C33.3 22.4723 39.4 23.3723 41.1 27.9723C42 30.6723 41.3 34.1723 39.1 35.9723C35.5 38.9723 29.6 36.0723 27.2 34.2723C22.2 30.8723 21.2 25.3723 21 23.9723Z" stroke="#271B16" stroke-width="2" stroke-miterlimit="10"/>
<path d="M71 33.9723C70.1 35.4723 68.3 37.9723 65.1 39.7723C64 40.3723 57.5 43.9723 53.3 40.5723C52.4 39.8723 51.6 38.8723 51.1 37.6723C50.3 35.9723 50.1 33.9723 50.8 32.2723C52.5 28.0723 58.9 27.8723 62.2 28.4723C67.1 29.2723 70.1 32.7723 71 33.9723Z" stroke="#271B16" stroke-width="2" stroke-miterlimit="10"/>
<path d="M25 62.7723H57.7" stroke="#271B16" stroke-width="2" stroke-miterlimit="10" stroke-linecap="round"/>
</g>
<defs>
<clipPath id="clip0_47_514">
<rect width="88" height="88" fill="white"/>
</clipPath>
</defs>
</svg>
