<svg width="88" height="88" viewBox="0 0 88 88" fill="none" xmlns="http://www.w3.org/2000/svg">
<g clip-path="url(#clip0_52_11)">
<path d="M44 88C68.3005 88 88 68.3005 88 44C88 19.6995 68.3005 0 44 0C19.6995 0 0 19.6995 0 44C0 68.3005 19.6995 88 44 88Z" fill="#FCF7F2"/>
<path d="M42.4 65.3C42.4 65.2 42.3 65.1999 42.2 65.1999C37.5 64.7999 33.3 63 29.8 59.7999C26.5 56.7999 24.4 53.2 23.3 48.9C22.6 46.1 22.6 43.2999 23 40.5C23.7 36.6 25.3 33.1 27.9 30.1C31.1 26.4 35.2 24.1 40 23.1C40.7 23 41.4 22.8999 42.1 22.7999C42.2 22.7999 42.2 22.8 42.3 22.7C43.4 22.7 44.5 22.7 45.5 22.7C45.6 22.9 45.8 22.7999 45.9 22.7999C50.5 23.2999 54.6 25.1 58.1 28.2C61.6 31.4 63.8 35.3 64.7 39.9C65.7 45 64.9 49.7999 62.4 54.2999C60.1 58.3999 56.8 61.3999 52.6 63.2999C50.4 64.2999 48.1 64.8999 45.7 65.0999C45.6 65.0999 45.5 64.9999 45.4 65.1999C44.5 65.2999 43.4 65.3 42.4 65.3ZM26 36.5V36.5999C25.1 38.6999 24.6 41 24.6 43.2999C24.5 46.0999 25 48.7999 26 51.2999C27.5 55 30 58 33.3 60.2C36.2 62.1 39.3 63.2 42.7 63.4C45.5 63.6 48.1 63.2 50.7 62.2999C53.3 61.2999 55.6 59.9 57.6 57.9C58.1 57.4 58.6 56.8999 59.1 56.2999C58.5 56.2 58.5 56.1999 58.5 55.5999C58.5 55.5 58.5 55.5 58.5 55.4C58.5 55.2 58.5 54.9 58.3 54.7C57.8 54.2 57.6 53.6 57.7 52.9C57.7 52.8 57.7 52.6999 57.7 52.5999C57.7 52.3999 57.7 52.1999 57.5 52.0999C57 51.7999 57 51.1999 57.3 50.7999C57.5 50.5 57.6 50.2999 57.7 50C57.8 49.7999 57.8 49.6999 57.7 49.5999C57.5 49.1999 57.3 48.9 57.1 48.5C56.6 47.7999 56.4 46.9999 56.6 46.0999C56.7 45.6999 56.7 45.7 56.2 45.7C55.8 45.7 55.3 45.7 55 45.2C54.9 45 54.1 45.1 54 45.2C53.8 45.4 53.5 45.5 53.2 45.5C52.9 45.5 52.5 45.4 52.2 45.5C51.6 45.7 51.4 45.7 51 45.2C50.8 44.9 50.6 44.7 50.3 44.4C49.6 43.8 49.3 42.9999 49.5 42.0999C49.5 41.8999 49.5 41.7999 49.7 41.5999C49.9 41.4999 49.8 41.1999 49.9 41.0999C49.9 40.9999 49.8 41 49.7 41C49.4 41.1 49.4 40.7999 49.4 40.5999C49.3 40.3999 49.3 40.2999 49.5 40.0999C50 39.7999 50.5 39.4 51 39C51.3 38.7999 51.5 38.4999 51.5 38.0999C51.5 37.8999 51.4 37.5999 51.5 37.5999C51.9 37.3999 52.3 37 52.8 37C53.4 37 53.9 37.1 54.4 36.7C54.5 36.6 54.6 36.5999 54.7 36.5999C55.1 36.5999 55.6 36.5 56 36.5C56.7 36.5 56.7 36.4999 56.7 37.0999C56.7 37.4999 56.8 37.5999 57.1 37.5999C57.6 37.7999 58.2 37.7999 58.7 38.0999C58.9 38.2999 59.1 38.1 59 37.9C59 37.6 59.1 37.6 59.3 37.5C59.8 37.4 60.2 37.4999 60.5 37.7999C60.7 37.9 60.8 38.0999 61.1 38.0999C61.5 38.0999 61.9 38.0999 62.3 38.0999C62.5 38.0999 62.6 37.9999 62.5 37.7999C62.4 37.4999 62.3 37.3 62.2 37C62 36.5 62 36.4 61.4 36.5C61.1 36.5 60.9 36.4999 60.7 36.2999C60.4 35.9999 60.4 35.6999 60.4 35.2999C60.4 35.1999 60.4 34.9999 60.3 35.0999C60.3 35.6999 60 35.7 60 36C59.9 36.3 59.9 36.6 59.8 36.9C59.6 36.7 59.4 36.4999 59.2 36.2999C59 36.0999 59 36 59 35.9C59.1 35.5 58.9 35.2 58.5 35C58.4 34.9 58.2 34.8 58.1 34.7C57.8 34.4 57.5 34.5 57.2 34.5C57.2 34.5 57.1 34.4999 57.1 34.5999C57.2 34.8999 57.2 35.2 57.5 35.4C57.8 35.5 58 35.6999 58.3 35.7999C58.4 35.9 58.6 36 58.5 36C58.3 36.2 58.4 36.3 58.4 36.5C58.4 36.6 58.4 36.6 58.4 36.7C58.1 37 57.5 36.9 57.3 36.4C57.5 36.4 57.6 36.4 57.7 36.4C57.9 36.4 57.9 36.3 58 36.2C58.1 36 57.9 36 57.8 36C57.3 35.6 56.6 35.4 56.4 34.7C56.3 34.8 56.3 34.8 56.2 34.9C56 35.2 55.7 35.3 55.4 35.2C55.3 35.2 55.2 35.2 55.2 35.2C54.9 35.7 54.4 36.0999 54.2 36.5999C54.1 36.6999 54.1 36.7999 53.9 36.7999C53.5 36.7999 53.1 36.7999 52.8 36.7999C52.4 36.7999 52.1 36.6 52 36.2C52 36 51.9 35.7999 51.9 35.5999C51.9 35.2999 52.1 35 52.4 34.9C52.9 34.8 53.3 34.8 53.8 34.9C54 34.9 54.1 34.9 54.1 34.7C54.1 34.5 54.3 34.4 54 34.2999C53.8 34.2999 53.8 34.2 53.8 34C53.8 33.9 53.8 33.8 53.8 33.7C53.8 33.4 53.9 33.2999 54.2 33.2999C54.7 33.2999 55 33.1 55.2 32.7C55.4 32.3 55.8 32.0999 56.2 32.0999C56.4 32.0999 56.5 32.1 56.7 32.2C57.2 32.3 57.2 32.2999 57.1 31.7999C57 31.2999 57 31.3 56.6 31.5C56.3 31.6 56.2 31.5999 56.1 31.2999C56 31.2999 56 31.1 55.7 31C55.5 31 55.3 30.5999 55.4 30.4C55.5 30.2 55.7 30 55.9 30C56.1 29.9 56.3 29.8999 56.5 29.7999C56.8 29.6999 56.9 29.4 56.7 29.2C55.2 28 53.6 26.9 51.9 26.1C48.8 24.7 45.6 24.2 42.2 24.5C39.2 24.8 36.3 25.6999 33.7 27.2999C33.3 27.4999 32.9 27.8 32.6 28.1C32.9 28.2 33.3 28.1 33.5 28.2C33.8 28.3 34.2 28.5 34.5 28.5C34.6 28.5 34.7 28.5 34.7 28.6C34.7 28.8 34.9 28.7999 35 28.7999C35.3 28.7999 35.5 28.7999 35.8 28.7999C36 28.7999 36 28.8 36 28.6C35.9 28.5 35.8 28.4 35.7 28.4C35.4 28.4 35.1 28.4 34.7 28.4C34.9 28.2 35 28.0999 34.9 27.9C34.8 27.7 34.6 27.7999 34.5 27.7999C34.3 27.7999 34.1 27.7999 33.9 27.7999C34.4 27.2999 34.9 26.8 35.7 26.9C35.9 26.9 36.1 27 36.2 27.2C36.3 27.4 36.4 27.6 36.6 27.6C37 27.6 37.4 27.7999 37.7 27.2999C37.7 27.1999 37.8 27.2 37.8 27.2C37.9 27.1 38.1 27.1999 38.2 27.2999C38.3 27.3999 38.2 27.4 38.1 27.5C37.8 27.9 37.4 28.1 36.9 28C36.8 28 36.6 27.9 36.7 28.2C36.8 28.4 36.6 28.7 36.9 28.7C37.2 28.7 37.4 28.7 37.7 28.7C37.8 28.7 37.9 28.7 37.9 28.6C37.9 28.4 38.1 28.4 38.2 28.4C38.3 28.4 38.5 28.4 38.6 28.4C38.8 28.4 38.8 28.2 38.8 28C38.8 27.8 38.7 27.7999 38.6 27.7999C38.3 27.7999 38.3 27.7 38.4 27.5C38.5 27.3 38.6 27.3 38.8 27.2C39.2 27.2 39.7 27.1999 40.2 27.2999C40 27.4999 39.8 27.6999 39.7 27.7999C39.5 27.9999 39.5 28.2 39.6 28.4C39.7 28.5999 40 28.6 40.2 28.6C40.4 28.6 40.3 28.3 40.3 28.2C40.3 28 40.2 27.8 40.4 27.7C40.6 27.5 40.9 27.3999 41.2 27.2999C41.9 27.1999 42.6 27.2 43.2 27.6C43.4 27.7 43.6 27.8 43.8 27.9C44.1 27.9999 44.2 28.2 44.2 28.5C44.2 28.7 44.2 28.7999 44.4 28.7999C44.5 28.7999 44.7 28.8 44.7 28.9C44.7 29.0999 44.6 29.1999 44.5 29.2999C44.4 29.3999 44.2 29.3999 44.1 29.2999C43.8 29.2999 43.6 29.4 43.5 29.7C43.5 29.8 43.5 29.9999 43.2 29.9C42.7 29.8 42.1 29.6 41.6 29.5C41.7 29.4 41.8 29.2999 41.9 29.2999C42.2 29.0999 42.5 28.9999 42.8 28.7999C43 28.6999 43 28.7 42.9 28.5C42.7 28.3 42.4 28.1 42.1 28.2C41.7 28.3 41.3 28.2 41 28.6C40.8 28.8 40.6 28.9 40.4 28.9C40.3 28.9 40.2 28.8 40.2 29C40.2 29.1 40.2 29.2 40.3 29.2C40.4 29.2 40.4 29.1999 40.4 29.2999C40.3 29.3999 40 29.3 39.9 29.5C39.8 29.8 39.7 29.7 39.5 29.7C39.3 29.7 39.4 29.4999 39.3 29.4C39.3 29.2 39.2 29.2 39 29.2C38.2 29.4 37.5 29.9999 36.8 30.2999C36.7 30.2999 36.7 30.4 36.7 30.5C36.7 31 37.1 31.4 37.5 31.5C37.8 31.5 38.1 31.5 38.2 31.6C38.4 31.8 38.2 32.1 38.3 32.4C38.3 32.5 38.2 32.7 38.4 32.7C38.5 32.7 38.7 32.6999 38.8 32.5999C38.8 32.5999 38.9 32.5 38.9 32.4C39 31.9 39.3 31.6 39.8 31.6C39.9 31.6 39.9 31.6 40 31.5C40.2 31.5 40.2 31.4 40.2 31.2C40.2 30.9 40.2 30.5999 40.2 30.2999C40.2 30.1999 40.2 30.1 40.3 30C40.6 29.8 40.8 29.6 41.2 29.7C41.3 29.7 41.4 29.7999 41.5 29.7999C42.1 29.8999 42.1 29.9 42 30.6C42 30.8 42.1 30.9 42.3 30.7999C42.6 30.7999 42.8 30.6 43.1 30.5C43.5 30.3 43.5 30.3 43.5 30.7C43.5 31.1 43.4 31.6 44 31.7C44.4 31.8 44.3 32.1 44.3 32.4C44.3 32.7 44.1 32.6 43.9 32.7C43.8 32.7 43.8 32.6999 43.7 32.7999C43.6 32.7999 43.5 32.8 43.5 33C43.5 33.1 43.6 33.2 43.7 33.2C43.9 33.3 44 33.4 44.2 33.4C44.5 33.5 44.4 33.7 44.4 33.9C44.3 34.1 44.2 34 44 34C43.8 33.9 43.6 33.9 43.4 33.7999C42.9 33.6999 42.9 33.5 43.2 33.2C43.3 33.1 43.3 32.9 43.2 32.7999C43.1 32.6999 43 32.6999 42.9 32.7999C42.8 33.1999 42.4 32.9999 42.2 33.0999C42 33.0999 41.9 33.1 41.9 32.9C41.8 32.7 41.4 32.6 41.2 32.7C41.1 32.8 41 32.9 41 33C41 33.2 41.1 33.2 41.2 33.2C41.3 33.2 41.5 33.2999 41.7 33.2999C41.5 33.4 41.4 33.6999 41.3 33.5999C41 33.2999 40.8 33.5 40.6 33.7C40.2 34 40 34.5 39.5 34.7C38.8 35 38.3 35.7 37.8 36.2C37.8 36.2 37.7 36.3 37.7 36.4C37.7 36.8 37.5 36.9999 37.2 37.0999C37 37.1999 36.7 37.4 36.5 37.5C36 37.8 35.7 38.1999 35.8 38.7999C35.8 38.9 35.8 39 35.8 39.2C35.8 39.3 35.8 39.2999 35.7 39.2999C35.3 39.1999 35 38.9 35 38.5C35 38.3 34.9 38.2 34.7 38.2C34.2 38.2 33.8 38.2 33.3 38.2C32.6 38.1 32.1 38.4999 31.5 38.7999C31.4 38.7999 31.4 38.9 31.4 39C31.3 39.2999 31.1 39.5 31 39.7999C30.9 40.0999 30.8 40.3999 30.8 40.5999C30.8 41.0999 31.1 41.3 31.6 41.4C31.9 41.4 32.2 41.4 32.4 41.2C32.6 41 32.9 40.8 33.2 40.7C33.3 40.6 33.4 40.4999 33.5 40.5999C33.6 40.6999 33.7 40.8999 33.6 41.0999C33.6 41.1999 33.5 41.3 33.5 41.4C33.4 41.6 33.3 41.7 33.2 41.9C33.3 41.9 33.4 41.9 33.5 42C33.8 42.1 34.2 42 34.3 42.2C34.5 42.4 34.4 42.7999 34.4 43.0999C34.5 43.9999 34.5 43.8999 35.3 44.0999C35.8 44.1999 36.2 44.1 36.4 43.7C36.7 43.1 37.2 43 37.7 43.2999C37.9 43.4 38.1 43.2999 38.2 43.5C38.4 43.9 38.7 44 39.2 43.9C39.3 43.9 39.4 43.9 39.5 43.9C39.6 43.9 39.8 43.9 39.8 43.7C39.8 43.6 39.9 43.5999 40 43.5999C40.2 43.6999 40.5 43.7999 40.6 44.0999C40.9 44.7999 41.4 45.1 42.1 45C42.3 45 42.4 45.1 42.5 45.2C42.8 45.6 42.9 46 42.9 46.5C42.9 46.6 42.9 46.7999 43.1 46.7999C43.8 47 44.4 47.4 45.1 47.2999C45.3 47.2999 45.5 47.2999 45.6 47.2999C45.9 47.2999 46 47.3999 46.1 47.5999C46.3 47.8999 46.4 48.1999 46.9 48.2999C47.2 48.2999 47.2 48.5 47.1 48.7C47 49 46.9 49.2 46.7 49.5C46.4 49.9 46.1 50.2999 46.1 50.7999C46.1 51.2999 46 51.8 46 52.2C46 52.3 46 52.4 45.9 52.5C45.5 52.7999 45.2 53.1 44.7 53C44.6 53 44.4 53 44.3 53C44.2 53 44.1 52.9999 44.1 53.0999C43.9 53.3999 43.7 53.6999 43.9 54.0999C44 54.2999 44 54.4999 44 54.5999C44.1 54.7999 44 54.8999 43.9 55.0999C43.4 55.6999 42.9 56.2999 42.5 57C42.5 57.0999 42.4 57.1 42.4 57.2C41.9 57.4 41.4 57.7999 40.8 57.7999C40.7 57.7999 40.5 57.7999 40.5 58C40.5 58.2 40.7 58.2 40.8 58.2C41.1 58.2999 41 58.5 40.9 58.5999C40.9 58.6999 40.8 58.7 40.7 58.7999C40.6 58.8999 40.4 58.8999 40.5 59.0999C40.6 59.1999 40.7 59.4 40.9 59.4C41.3 59.4 41.4 59.5 41.2 59.9C41.2 60 41.1 60.1 41.1 60.2C41 60.4 41 60.7 41.3 60.7999C41.5 60.8999 41.6 61 41.7 61.0999C41.8 61.1999 41.9 61.2999 41.8 61.5C41.7 61.7 41.6 61.7 41.5 61.7C41.3 61.7 41 61.7 40.8 61.7C40.6 61.7 40.5 61.5999 40.4 61.5C39.7 61 39.2 60.2999 38.8 59.5999C38.6 59.1999 38.5 58.9 38.6 58.5C38.8 57.9 38.6 57.4 38.2 56.9C38.1 56.8 38 56.6 38.1 56.4C38.2 56.1 38.2 55.7 38.3 55.4C38.3 55.3 38.4 55.0999 38.2 55.0999C38 55.0999 38 54.9 38 54.7C38 53.8 38 52.8 38 51.9C38 51.8 38 51.6999 37.9 51.5999C37.4 51.2999 37 50.8 36.4 50.7C36.2 50.7 36.1 50.6 36.1 50.4C36.1 50.1 35.9 49.9 35.8 49.7C35.5 49.3 35.2 48.9999 34.9 48.5999C34.7 48.2999 34.5 48.1 34.7 47.7C34.8 47.5 34.8 47.2999 34.8 47C34.8 46.6 34.9 46.1999 35.3 46.0999C35.7 45.8999 35.9 45.5999 35.8 45.0999C35.7 44.4999 35.7 44.4 35.1 44.5C34.5 44.5 34 44.2999 33.7 43.7999C33.3 43.2999 32.9 42.9 32.2 42.9C32.1 42.9 32.1 42.9 32 42.9C31.8 42.9 31.7 42.7999 31.8 42.5999C31.8 42.4999 31.9 42.4 31.7 42.4C31.5 42.4 31.3 42.2 31.2 42.4C31.1 42.6 31 42.5 30.9 42.5C30.7 42.5 30.6 42.4 30.4 42.4C29.7 42.4 29.2 42 28.9 41.2999C28.8 41.0999 28.8 41 28.9 40.9C29.1 40.7 29 40.5 28.9 40.2999C28.4 39.5999 27.8 39 27.8 38C27.8 37.8 27.6 37.9 27.5 37.9C27.3 37.9 27.4 37.9999 27.4 38.0999C27.4 38.5999 27.5 39.1999 27.9 39.5999C28 39.6999 28.1 39.8999 28.2 40.0999C28.3 40.2999 28.3 40.4999 28.1 40.5999C28 40.6999 27.5 40.5 27.4 40.4C26.9 39.7 26.6 38.9999 26.7 38.0999C26.7 37.9999 26.7 38 26.7 37.9C26.7 37.7 26.7 37.5999 26.5 37.5999C26 37.4999 25.8 37.0999 25.9 36.5999C26.1 36.6999 26.1 36.6 26 36.5C26.3 36 26.6 35.5 26.7 35C26.1 35.4 26 35.7 26 36.5ZM58.3 30.7H58.2C58.4 31.4 58.1 31.7999 57.5 31.9C57.4 31.9 57.4 31.9999 57.4 32.0999C57.4 32.1999 57.5 32.2 57.6 32.2C57.9 32.2 58.3 32.2 58.6 32.2C58.9 32.2 58.9 31.9 59 31.7C59.1 31.6 59 31.5 59 31.5C58.8 31.3 58.5 31 58.3 30.7ZM36.4 34.2999C36.5 34.2999 36.6 34.2999 36.7 34.2999C36.8 34.2999 37 34.3999 37 34.0999C37 33.8999 36.8 33.6999 36.7 33.5999C36.3 33.4999 35.9 33.5999 35.5 33.7999C35.4 33.9 35.4 33.9999 35.4 34.0999C35.4 34.1999 35.5 34.2 35.6 34.2C35.9 34.3 36.1 34.2999 36.4 34.2999ZM36.5 34.4C35.8 34.4 35.4 34.7 35.4 35.2C35.4 35.4 35.5 35.4 35.6 35.5C35.7 35.6 35.8 35.6 35.8 35.5C36 35.1 36.3 34.8 36.5 34.4ZM33 29.6C33.1 29.6 33.2 29.6 33.4 29.6C33.6 29.6 33.7 29.4 33.7 29.2C33.7 28.9 33.5 29.1 33.4 29C33.1 28.9 32.9 29.2 32.6 29.2C32.5 29.2 32.5 29.4 32.5 29.5C32.5 29.6 32.5 29.7 32.6 29.7C32.8 29.6 32.9 29.6 33 29.6ZM34.9 32.2C34.7 32.2 34.4 32.4 34.3 32.5C34.3 32.6 34.6 33.0999 34.7 33.0999C35 33.0999 35.3 32.8 35.2 32.5C35.3 32.1 35 32.2 34.9 32.2ZM36.8 35.7999C37.1 35.9 37.2 35.6999 37.4 35.5999C37.5 35.4999 37.5 35.3 37.4 35.2C37.3 35.1 37.2 35.2 37.1 35.2C37 35.2 36.9 35.4 36.8 35.4C36.5 35.4 36.5 35.6 36.5 35.7C36.6 36 36.8 35.7999 36.8 35.7999ZM33.1 30.6C33.2 30.6 33.4 30.6 33.5 30.6C33.7 30.6 33.7 30.4999 33.7 30.2999C33.7 30.0999 33.6 30.1 33.4 30.2C33.3 30.2 33.1 30.1999 33 30.2999C32.8 30.3999 32.5 30.3 32.6 30.5C32.6 30.7 32.9 30.5 33.1 30.6ZM61.8 36.0999C61.7 35.8999 61.6 35.6999 61.5 35.5999C61.4 35.4999 61.4 35.2999 61.3 35.2999C61.1 35.2999 61.2 35.6 61.2 35.7C61.3 36.1 61.3 36.0999 61.8 36.0999ZM38.3 35.4C38.4 35.3 38.6 35.4999 38.6 35.2999C38.6 35.1999 38.7 35 38.5 35C38.4 35 38.3 34.9 38.1 34.9C38 34.9 37.9 34.8 37.8 34.9C37.7 35 37.8 35.0999 37.8 35.2999C37.9 35.4999 38 35.5 38.3 35.4ZM37.3 34.4C36.9 34.4 36.9 34.4 37 34.7C37 34.8 36.9 35 37.1 35C37.4 35 37.6 34.7999 37.6 34.5999C37.6 34.3999 37.4 34.4 37.3 34.4ZM27.5 33.5999C27.3 33.8999 27.2 34.1 27.1 34.4C27.3 34.2 27.6 33.9999 27.5 33.5999ZM38.2 34.7C38.3 34.7 38.4 34.5999 38.4 34.5999C38.4 34.4999 38.3 34.4 38.2 34.4C38.1 34.4 38 34.4999 38 34.5999C38 34.5999 38.1 34.7 38.2 34.7ZM37.3 33.7999C37.3 33.9999 37.2 34.1 37.3 34.2C37.4 34.2 37.5 34.1999 37.6 34.0999C37.5 33.9999 37.4 33.9 37.3 33.7999Z" fill="#271B16"/>
<path d="M58.3 30.7C58.6 31 58.8 31.3 59.1 31.6C59.2 31.7 59.2 31.7999 59.1 31.7999C58.9 31.8999 58.9 32.1999 58.7 32.2999C58.4 32.2999 58 32.2999 57.7 32.2999C57.6 32.2999 57.5 32.3 57.5 32.2C57.5 32.1 57.5 32 57.6 32C58.2 31.8 58.5 31.3999 58.3 30.7999C58.2 30.6999 58.2 30.7 58.3 30.7Z" fill="#271B16"/>
<path d="M36.4 34.2999C36.2 34.2999 35.9 34.2999 35.7 34.1999C35.6 34.1999 35.5 34.1999 35.5 34.0999C35.5 33.9999 35.5 33.8999 35.6 33.7999C36 33.5999 36.4 33.4999 36.8 33.5999C36.9 33.5999 37.1 33.7999 37.1 34.0999C37.1 34.3999 36.9 34.2999 36.8 34.2999C36.6 34.2999 36.5 34.2999 36.4 34.2999Z" fill="#271B16"/>
<path d="M36.4999 34.3999C36.1999 34.7999 35.9999 35.0999 35.7999 35.3999C35.6999 35.4999 35.6999 35.4999 35.5999 35.3999C35.4999 35.2999 35.3999 35.2999 35.3999 35.0999C35.3999 34.6999 35.7999 34.3999 36.4999 34.3999Z" fill="#271B16"/>
<path d="M33 29.5999C32.9 29.5999 32.8 29.5999 32.6 29.5999C32.5 29.5999 32.5 29.4999 32.5 29.3999C32.5 29.2999 32.5 29.0999 32.6 29.0999C32.9 29.0999 33.1 28.7999 33.4 28.8999C33.5 28.8999 33.7 28.7999 33.7 29.0999C33.7 29.2999 33.6 29.4999 33.4 29.4999C33.3 29.5999 33.1 29.5999 33 29.5999Z" fill="#271B16"/>
<path d="M34.8999 32.2C34.9999 32.3 35.2999 32.2 35.2999 32.4C35.2999 32.7 35.0999 33 34.7999 33C34.6999 33 34.3999 32.5 34.3999 32.4C34.3999 32.4 34.6999 32.2 34.8999 32.2Z" fill="#271B16"/>
<path d="M36.8 35.8C36.8 35.8 36.6 35.9 36.5 35.7C36.5 35.6 36.5 35.4 36.8 35.4C36.9 35.4 37 35.2 37.1 35.2C37.2 35.2 37.3 35.1 37.4 35.2C37.4 35.3 37.5 35.4 37.4 35.6C37.3 35.8 37.1 35.9 36.8 35.8Z" fill="#271B16"/>
<path d="M33.1001 30.6C32.9001 30.6 32.6001 30.7 32.6001 30.4C32.6001 30.2 32.9001 30.3 33.0001 30.2C33.1001 30.2 33.3001 30.1 33.4001 30.1C33.5001 30.1 33.7001 30 33.7001 30.2C33.7001 30.3 33.7001 30.5 33.5001 30.5C33.4001 30.5 33.2001 30.6 33.1001 30.6Z" fill="#271B16"/>
<path d="M26.0999 36.5C25.9999 36.5 25.9999 36.5 26.0999 36.5C25.9999 35.6 26.1999 35.4 26.7999 35C26.5999 35.5 26.1999 36 26.0999 36.5Z" fill="#271B16"/>
<path d="M61.7998 36.0999C61.1998 36.1999 61.1998 36.1999 61.1998 35.5999C61.1998 35.4999 61.0998 35.2 61.2998 35.2C61.4998 35.2 61.4998 35.4 61.4998 35.5C61.6998 35.7 61.6998 35.8999 61.7998 36.0999Z" fill="#271B16"/>
<path d="M38.3001 35.3999C38.1001 35.3999 37.9001 35.3999 37.8001 35.1999C37.7001 35.0999 37.7001 34.8999 37.8001 34.7999C37.9001 34.6999 38.0001 34.7999 38.1001 34.7999C38.2001 34.7999 38.3001 34.8999 38.5001 34.8999C38.7001 34.8999 38.6001 35.0999 38.6001 35.1999C38.5001 35.5999 38.3001 35.3999 38.3001 35.3999Z" fill="#271B16"/>
<path d="M37.3001 34.3999C37.4001 34.3999 37.6001 34.2999 37.6001 34.5999C37.6001 34.7999 37.3001 34.9999 37.1001 34.9999C36.8001 34.9999 37.0001 34.7999 37.0001 34.6999C36.9001 34.3999 36.9001 34.3999 37.3001 34.3999Z" fill="#271B16"/>
<path d="M27.5001 33.6C27.6001 34 27.3001 34.2 27.1001 34.4C27.2001 34.1 27.3001 33.9 27.5001 33.6Z" fill="#271B16"/>
<path d="M38.2 34.6999C38.1 34.6999 38 34.5999 38 34.4999C38 34.3999 38.1 34.2999 38.2 34.2999C38.3 34.2999 38.4 34.3999 38.4 34.4999C38.4 34.5999 38.3 34.6999 38.2 34.6999Z" fill="#271B16"/>
<path d="M37.3001 33.7999C37.5001 33.8999 37.5001 33.9999 37.6001 34.0999C37.5001 34.1999 37.4001 34.1999 37.3001 34.1999C37.2001 34.0999 37.3001 33.9999 37.3001 33.7999Z" fill="#271B16"/>
<path d="M53.2 31.9C53.1 31.7 52.9 31.6 53.1 31.3C53.3 31 53.5 31.1 53.8 31C53.9 31 53.9 31.1 53.9 31.2C54 31.5 54 31.7 54.2 32C54.4 32.3 54.6 32.6 55 32.7C54.8 33 54.6 33.2 54.3 33.2C54.1 33.2 54 33.2 53.8 33.2C53.3 33.2 53.3 33.2 53.4 32.7C53.4 32.5 53.5 32.5 53.7 32.5C53.8 32.5 53.9 32.5 53.9 32.4C53.9 32.3 53.9 32.1 53.8 32.1C53.5 32.1 53.4 31.9 53.2 31.9Z" fill="#271B16"/>
<path d="M53.2 31.8999C53.2 32.0999 53.3 32.2999 53.2 32.4999C52.9 32.6999 52.7 32.9999 52.2 33.0999C52 33.0999 52 32.9999 52 32.7999C52 32.1999 52.5 31.7999 53.1 31.9999C53.1 31.9999 53.2 31.9999 53.2 31.8999Z" fill="#271B16"/>
<path d="M42 34.9999C41.8 34.9999 41.7 34.8999 41.7 34.6999C41.7 34.4999 41.9 34.5999 42 34.5999C42.1 34.5999 42.2999 34.5999 42.2999 34.3999C42.3999 34.1999 42.5999 34.2999 42.7999 34.2999C42.8999 34.3999 42.8 34.4999 42.7 34.4999C42.5 34.4999 42.5 34.5999 42.4 34.7999C42.4 34.8999 42.2 34.9999 42 34.9999Z" fill="#271B16"/>
<path d="M41.0999 35C40.9999 35 40.8999 35 40.8999 34.9C40.8999 34.8 40.9999 34.6 41.0999 34.6C41.1999 34.6 41.2999 34.7 41.2999 34.8C41.3999 35 41.2999 35.1 41.0999 35Z" fill="#271B16"/>
</g>
<defs>
<clipPath id="clip0_52_11">
<rect width="88" height="88" fill="white"/>
</clipPath>
</defs>
</svg>
