<svg width="88" height="88" viewBox="0 0 88 88" fill="none" xmlns="http://www.w3.org/2000/svg">
<path d="M44 88C68.3005 88 88 68.3005 88 44C88 19.6995 68.3005 0 44 0C19.6995 0 0 19.6995 0 44C0 68.3005 19.6995 88 44 88Z" fill="#FCF7F2"/>
<path d="M60.6149 59.2561H30.5877C29.9749 59.2561 29.5664 58.8596 29.5664 58.265C29.5664 57.6704 29.9749 57.2739 30.5877 57.2739H60.6149C61.2277 57.2739 61.6362 57.6704 61.6362 58.265C61.6362 58.8596 61.1255 59.2561 60.6149 59.2561Z" fill="#271B16"/>
<path d="M44.993 58.2646C44.3802 58.2646 43.9717 57.8682 43.9717 57.2735V24.8656C43.9717 24.2709 44.3802 23.8745 44.993 23.8745C45.6058 23.8745 46.0143 24.2709 46.0143 24.8656V57.2735C46.0143 57.7691 45.6058 58.2646 44.993 58.2646Z" fill="#271B16"/>
<path d="M45.2937 50.6323C45.0894 50.6323 44.8851 50.5332 44.6809 50.4341C44.2723 50.1367 44.0681 49.5421 44.4766 49.0466C45.4979 47.6591 47.4385 45.6769 50.2982 44.4876C52.0344 43.7939 53.8728 43.3975 55.8134 43.3975C56.4262 43.3975 56.8347 43.893 56.8347 44.3885C56.8347 44.9832 56.324 45.3796 55.8134 45.3796C54.1792 45.3796 52.6472 45.6769 51.1152 46.2716C48.5619 47.2626 47.0299 48.9474 46.1107 50.2358C45.9065 50.5332 45.6001 50.6323 45.2937 50.6323Z" fill="#271B16"/>
<path d="M44.9918 44.6873C44.5833 44.6873 44.2769 44.4891 44.0726 44.0927C43.4598 42.7052 42.2342 40.8222 39.8852 39.3356C37.7404 37.9481 35.6977 37.5516 34.2678 37.5516C33.655 37.5516 33.2465 37.0561 33.3486 36.4615C33.3486 35.8668 33.8593 35.4704 34.4721 35.5695C36.1062 35.6686 38.6596 36.1641 41.1108 37.7499C43.8684 39.5338 45.2982 41.8132 46.0132 43.3989C46.2174 43.8945 46.0132 44.4891 45.5025 44.6873C45.2982 44.5882 45.1961 44.6873 44.9918 44.6873Z" fill="#271B16"/>
<path d="M45.0903 36.0647C44.7839 36.0647 44.4775 35.9656 44.2733 35.7674C43.8647 35.371 43.9669 34.7764 44.3754 34.3799C45.601 33.3889 47.6436 32.0014 50.4012 31.5058C51.8311 31.2085 53.3631 31.2085 54.8951 31.5058C55.4058 31.6049 55.8143 32.1005 55.7122 32.6951C55.61 33.1906 55.0994 33.5871 54.4866 33.488C53.261 33.2898 52.0354 33.2898 50.8098 33.488C48.4607 33.8844 46.7244 34.9746 45.7031 35.8665C45.601 36.0647 45.3967 36.0647 45.0903 36.0647Z" fill="#271B16"/>
<path d="M44.9916 27.1446C44.6852 27.1446 44.481 27.0455 44.2767 26.8473C41.9276 24.4687 38.5572 23.0812 35.1869 22.9821C34.5741 22.9821 34.1655 22.4866 34.1655 21.9911C34.1655 21.3964 34.6762 21 35.1869 21C39.0679 21.0991 42.949 22.7839 45.7066 25.4598C46.1151 25.8562 46.1151 26.4509 45.7066 26.8473C45.5023 27.0455 45.298 27.1446 44.9916 27.1446Z" fill="#271B16"/>
<path d="M35.3858 37.3524C35.1815 37.7489 34.6709 37.848 34.2623 37.9471C32.7303 38.2444 30.7898 37.5506 29.8706 36.3614C30.4834 35.1721 31.8111 34.4783 33.1389 34.6765C34.8751 34.8748 35.5901 36.4605 35.5901 36.5596" fill="#271B16"/>
<path d="M45.0898 64.2109C45.3718 64.2109 45.6004 63.9891 45.6004 63.7154C45.6004 63.4417 45.3718 63.2198 45.0898 63.2198C44.8077 63.2198 44.5791 63.4417 44.5791 63.7154C44.5791 63.9891 44.8077 64.2109 45.0898 64.2109Z" fill="#271B16"/>
<path d="M45.0933 66.7874C44.7869 66.7874 44.4805 66.4901 44.4805 66.1928C44.4805 65.8955 44.7869 65.5981 45.0933 65.5981C45.3997 65.5981 45.7061 65.8955 45.7061 66.1928C45.7061 66.4901 45.3997 66.7874 45.0933 66.7874ZM45.0933 65.7964C44.889 65.7964 44.6847 65.9946 44.6847 66.1928C44.6847 66.391 44.889 66.5892 45.0933 66.5892C45.2975 66.5892 45.5018 66.391 45.5018 66.1928C45.5018 65.9946 45.2975 65.7964 45.0933 65.7964Z" fill="#271B16"/>
<path d="M45.0898 69.1665C45.3718 69.1665 45.6004 68.9446 45.6004 68.6709C45.6004 68.3973 45.3718 68.1754 45.0898 68.1754C44.8077 68.1754 44.5791 68.3973 44.5791 68.6709C44.5791 68.9446 44.8077 69.1665 45.0898 69.1665Z" fill="#271B16"/>
<path d="M51.8304 32.2975C51.524 32.2975 51.2176 32.0002 50.9112 31.7029C50.1963 30.8109 50.0941 29.3243 50.6048 28.2341L50.7069 28.135H50.9112C51.9325 28.2341 52.8517 28.9279 53.1581 29.8198C53.5667 31.1082 52.6475 32.0993 52.5453 32.0993L52.1368 31.802C52.1368 31.802 52.9539 31.0091 52.6475 29.9189C52.4432 29.2252 51.8304 28.7297 51.0133 28.5314C50.6048 29.4234 50.8091 30.6127 51.3197 31.3064C51.524 31.6038 51.7283 31.7029 51.9325 31.7029L51.8304 32.2975Z" fill="#271B16"/>
<path d="M52.1411 48.7495C51.5283 48.7495 50.9155 48.4522 50.6091 48.0558C49.8942 47.1638 50.3027 46.1727 50.3027 46.0736L50.8134 46.2718C50.8134 46.2718 50.507 47.0647 51.0177 47.7584C51.3241 48.1549 51.9369 48.3531 52.5497 48.254C52.5497 47.5602 52.1411 46.6683 51.5283 46.371C51.3241 46.2718 51.1198 46.1727 51.0177 46.2718L50.9155 45.7763C51.2219 45.6772 51.5283 45.7763 51.8347 45.9745C52.6518 46.4701 53.1625 47.5602 53.1625 48.4522V48.6504L52.9582 48.7495C52.5497 48.6504 52.3454 48.7495 52.1411 48.7495Z" fill="#271B16"/>
<path d="M24.8688 42.208H12V29.6215H24.8688V42.208ZM13.0213 41.217H23.8474V30.6125H13.0213V41.217Z" fill="#271B16"/>
<path d="M15.8848 38.2455V32.5964H17.1104L19.5616 36.1643V32.5964H20.7872V38.2455H19.5616L17.1104 34.6777V38.2455H15.8848Z" fill="#271B16"/>
<path d="M59.802 60.8414H47.9546V72.3378H59.802V60.8414Z" fill="#271B16"/>
<path d="M53.1583 67.0843V68.9673H51.8306V63.3182H54.1796C55.4052 63.3182 56.1202 64.1111 56.1202 65.2013C56.1202 66.2914 55.3031 67.0843 54.1796 67.0843H53.1583ZM53.1583 64.4084V65.9941H53.9754C54.5882 65.9941 54.8946 65.6968 54.8946 65.2013C54.8946 64.7057 54.5882 64.4084 53.9754 64.4084H53.1583Z" fill="#FCF7F2"/>
<path d="M72.8712 36.362H60.0024V23.8745H72.8712V36.362ZM61.0238 35.3709H71.8499V24.8656H61.0238V35.3709Z" fill="#271B16"/>
<path d="M65.5186 29.5234L67.6634 26.8475H69.1954L67.2549 29.2261L69.1954 32.4966H67.7656L66.4378 30.3163L65.5186 31.4065V32.4966H64.1909V26.8475H65.5186V29.5234Z" fill="#271B16"/>
<path d="M17.0029 28.0375C17.2849 28.0375 17.5135 27.8156 17.5135 27.5419C17.5135 27.2682 17.2849 27.0464 17.0029 27.0464C16.7208 27.0464 16.4922 27.2682 16.4922 27.5419C16.4922 27.8156 16.7208 28.0375 17.0029 28.0375Z" fill="#271B16"/>
<path d="M19.5606 28.1352C19.2542 28.1352 18.9478 27.8379 18.9478 27.5406C18.9478 27.2432 19.2542 26.9459 19.5606 26.9459C19.867 26.9459 20.1734 27.2432 20.1734 27.5406C20.1734 27.8379 19.867 28.1352 19.5606 28.1352ZM19.5606 27.1441C19.3563 27.1441 19.152 27.3424 19.152 27.5406C19.152 27.7388 19.3563 27.937 19.5606 27.937C19.7648 27.937 19.9691 27.7388 19.9691 27.5406C19.9691 27.3424 19.7648 27.1441 19.5606 27.1441Z" fill="#271B16"/>
<path d="M22.1113 28.0375C22.3933 28.0375 22.6219 27.8156 22.6219 27.5419C22.6219 27.2682 22.3933 27.0464 22.1113 27.0464C21.8292 27.0464 21.6006 27.2682 21.6006 27.5419C21.6006 27.8156 21.8292 28.0375 22.1113 28.0375Z" fill="#271B16"/>
</svg>
