<svg width="175" height="99" viewBox="0 0 175 99" fill="none" xmlns="http://www.w3.org/2000/svg">
<path d="M59.6552 70.8202C58.4048 75.9295 55.7617 80.0436 51.7207 83.1625C47.6796 86.284 43.0224 87.8408 37.7517 87.8408C31.4274 87.8408 26.0402 85.6675 21.5875 81.3183C17.1375 76.9717 14.9111 71.6378 14.9111 65.3216C14.9111 59.0055 17.1168 53.6924 21.528 49.3824C25.9392 45.0749 31.3083 42.9199 37.6327 42.9199C41.5753 42.9199 45.2074 43.7976 48.5261 45.553C51.8449 47.3083 54.5787 49.8238 56.7247 53.0994C58.2858 55.4399 59.2617 57.7987 59.6526 60.1757H48.0576C47.1981 57.9136 45.8312 56.0903 43.957 54.7059C42.0827 53.3215 39.9548 52.6292 37.5731 52.6292C34.1767 52.6292 31.3937 53.8674 29.227 56.3437C27.0602 58.82 25.9755 61.7926 25.9755 65.2641C25.9755 68.7357 27.0602 71.7475 29.227 74.3021C31.3937 76.8568 34.1948 78.1341 37.6301 78.1341C39.9729 78.1341 42.0413 77.4707 43.8379 76.1463C45.6319 74.822 47.0376 73.0457 48.055 70.8228H59.65L59.6552 70.8202Z" fill="#442D1C"/>
<path d="M102.994 87.0235H90.987L88.8798 80.7648H73.8287L71.5454 87.0235H59.6553L77.0491 43.7378H85.7758L102.994 87.0235ZM85.9519 71.9907L81.5018 57.1929H81.3258L76.8757 71.9907H85.9545H85.9519Z" fill="#442D1C"/>
<path d="M131.105 53.4495H118.044V60.821H130.636V70.5303H118.044V87.026H107.443V43.7402H131.105V53.4495Z" fill="#442D1C"/>
<path d="M161.15 87.0234H137.08V43.7377H161.15V53.447H147.681V60.1733H160.741V69.8826H147.681V77.3115H161.15V87.0208V87.0234ZM158.396 35.2587L143.989 41.6349L141.238 35.9039L155.292 28.3574L158.396 35.2587Z" fill="#442D1C"/>
<path d="M24.8232 14.704H22.6202C21.8306 13.782 20.8961 13.3222 19.8243 13.3222C18.882 13.3222 18.0795 13.6879 17.4168 14.4167C16.7541 15.1455 16.4201 15.984 16.4201 16.9348C16.4201 17.8856 16.7619 18.7398 17.4453 19.4738C18.1287 20.2078 18.9442 20.5735 19.8968 20.5735C20.8495 20.5735 21.7245 20.1373 22.5244 19.2622H24.7689C24.3728 20.2026 23.7256 20.9575 22.8273 21.5269C21.929 22.0964 20.966 22.3811 19.9383 22.3811C18.4419 22.3811 17.1579 21.843 16.0888 20.7668C15.0196 19.6906 14.4863 18.4054 14.4863 16.9087C14.4863 15.4119 15.017 14.1659 16.0836 13.108C17.1476 12.0501 18.4186 11.5225 19.8968 11.5225C20.9712 11.5225 21.9523 11.8098 22.8428 12.3819C23.7334 12.9565 24.3935 13.7323 24.8284 14.7093L24.8232 14.704Z" fill="#74543C"/>
<path d="M36.418 16.9765C36.418 18.4706 35.8821 19.7453 34.8156 20.798C33.7464 21.8507 32.4598 22.3784 30.9532 22.3784C29.4465 22.3784 28.1599 21.8507 27.0907 20.798C26.0216 19.7453 25.4883 18.4706 25.4883 16.9765C25.4883 15.4823 26.019 14.1736 27.083 13.1105C28.1469 12.0474 29.4361 11.5171 30.9532 11.5171C32.4702 11.5171 33.7594 12.0474 34.8233 13.1105C35.8873 14.1736 36.4206 15.4614 36.4206 16.9765H36.418ZM34.4842 16.9608C34.4842 15.9629 34.1425 15.1088 33.4591 14.3931C32.7756 13.6773 31.9395 13.3221 30.9532 13.3221C29.9668 13.3221 29.1281 13.6799 28.4472 14.3931C27.7638 15.1088 27.4221 15.9629 27.4221 16.9608C27.4221 17.9586 27.7664 18.7841 28.4524 19.4998C29.141 20.2155 29.972 20.5708 30.9532 20.5708C31.9343 20.5708 32.7653 20.2129 33.4539 19.4998C34.1399 18.7841 34.4842 17.9377 34.4842 16.9608Z" fill="#74543C"/>
<path d="M46.3616 22.1666H44.2L39.8353 14.5784H39.8068V22.1666H37.873V11.7285H40.0761L44.3967 19.3168H44.4252V11.7285H46.359V22.1666H46.3616Z" fill="#74543C"/>
<path d="M58.8757 17.0731C58.8757 18.5411 58.3243 19.7897 57.224 20.8241C56.1212 21.8585 54.8268 22.3757 53.3409 22.3757C51.8549 22.3757 50.4855 21.8507 49.3801 20.8032C48.2747 19.7558 47.7207 18.468 47.7207 16.9451C47.7207 15.4222 48.2721 14.1606 49.3723 13.1027C50.4726 12.0447 51.7773 11.5171 53.2839 11.5171C54.3583 11.5171 55.3834 11.8201 56.362 12.4261C57.3405 13.0321 58.0058 13.821 58.3527 14.7875H56.0358C55.7355 14.3277 55.3316 13.9673 54.8294 13.7087C54.3246 13.4501 53.7965 13.3195 53.2399 13.3195C52.2329 13.3195 51.3838 13.6747 50.69 14.3852C49.9988 15.0957 49.6519 15.9525 49.6519 16.9608C49.6519 17.431 49.7503 17.9012 49.9496 18.3713C50.2422 19.0688 50.6874 19.6069 51.2854 19.9935C51.8834 20.3801 52.5694 20.5708 53.3409 20.5708C53.9984 20.5708 54.6042 20.3984 55.1556 20.0562C55.707 19.714 56.1316 19.2464 56.4345 18.6534H52.0569V16.8485H58.8783V17.0731H58.8757Z" fill="#74543C"/>
<path d="M67.1805 22.1666H64.8351L62.0678 18.1753H62.0393V22.1666H60.1055V11.7285H63.3104C64.4209 11.7285 65.2675 11.9636 65.8525 12.4338C66.6706 13.0921 67.0822 13.9332 67.0822 14.9597C67.0822 15.4116 66.9916 15.8635 66.8129 16.3207C66.6343 16.7778 66.3884 17.1565 66.0777 17.4569C65.6532 17.8514 65.0759 18.1387 64.3407 18.3163L67.1805 22.1666ZM65.1458 15.1138C65.1458 14.6071 64.9672 14.2153 64.6099 13.9436C64.2527 13.6719 63.81 13.5335 63.2819 13.5335H62.0393V16.7203H63.2819C63.8281 16.7203 64.276 16.5845 64.6229 16.3102C64.9723 16.0385 65.1458 15.6389 65.1458 15.1112V15.1138Z" fill="#74543C"/>
<path d="M73.8751 22.1666H68.2549V11.7285H73.8751V13.5335H70.1887V16.0856H73.7198V17.8905H70.1887V20.359H73.8751V22.164V22.1666Z" fill="#74543C"/>
<path d="M81.6982 19.0503C81.6982 20.0273 81.3772 20.8266 80.7378 21.4483C80.0983 22.07 79.288 22.3782 78.3095 22.3782C77.3309 22.3782 76.5854 22.0752 75.9356 21.4692C75.2858 20.8631 74.9415 20.0978 74.9053 19.1757H76.94C76.9763 19.5884 77.1161 19.9254 77.3568 20.184C77.5976 20.4426 77.9186 20.5732 78.325 20.5732C78.7315 20.5732 79.0473 20.4504 79.3346 20.2075C79.622 19.962 79.7644 19.6485 79.7644 19.2619C79.7644 19.1026 79.7463 18.9537 79.7074 18.8178C79.6686 18.682 79.6065 18.5592 79.5158 18.4521C79.4252 18.345 79.3476 18.2536 79.2751 18.1831C79.2052 18.1126 79.0913 18.0394 78.936 17.9637C78.7806 17.8879 78.6616 17.8331 78.5761 17.8017C78.4907 17.7678 78.3535 17.7181 78.1593 17.6476C77.9652 17.5771 77.8357 17.5274 77.771 17.4987C77.2921 17.3106 76.9763 17.18 76.8236 17.1043C75.7984 16.5688 75.2832 15.699 75.2832 14.4948C75.2832 13.638 75.5783 12.9301 76.166 12.3659C76.7536 11.8016 77.4811 11.5195 78.3483 11.5195C79.2156 11.5195 79.9119 11.8043 80.4944 12.3737C81.0769 12.9431 81.3927 13.651 81.4419 14.4974H79.4641C79.3994 13.7163 79.0085 13.3271 78.2914 13.3271C77.9807 13.3271 77.7244 13.4264 77.5225 13.6223C77.3206 13.8208 77.2196 14.0742 77.2196 14.385C77.2196 14.5078 77.2352 14.6201 77.2688 14.7246C77.3025 14.8291 77.3361 14.9179 77.375 14.9937C77.4112 15.0694 77.4785 15.1452 77.5717 15.2183C77.6649 15.2941 77.74 15.3489 77.7917 15.3881C77.8435 15.4247 77.9367 15.4717 78.0739 15.5292C78.2111 15.5866 78.3017 15.6232 78.3483 15.6415C78.3949 15.6598 78.5011 15.6963 78.6667 15.7486C78.8324 15.8008 78.9282 15.8322 78.9567 15.84C79.8317 16.1326 80.5074 16.527 80.9837 17.0259C81.46 17.5248 81.6956 18.2014 81.6956 19.0582L81.6982 19.0503Z" fill="#74543C"/>
<path d="M93.4766 16.9765C93.4766 18.4706 92.9407 19.7453 91.8742 20.798C90.805 21.8507 89.5184 22.3784 88.0117 22.3784C86.5051 22.3784 85.2185 21.8507 84.1493 20.798C83.0802 19.7453 82.5469 18.4706 82.5469 16.9765C82.5469 15.4823 83.0776 14.1736 84.1416 13.1105C85.2055 12.0474 86.4947 11.5171 88.0117 11.5171C89.5287 11.5171 90.818 12.0474 91.8819 13.1105C92.9459 14.1736 93.4792 15.4614 93.4792 16.9765H93.4766ZM91.5402 16.9608C91.5402 15.9629 91.1985 15.1088 90.5151 14.3931C89.8316 13.6773 88.9955 13.3221 88.0091 13.3221C87.0228 13.3221 86.1841 13.6799 85.5032 14.3931C84.8198 15.1088 84.4781 15.9629 84.4781 16.9608C84.4781 17.9586 84.8224 18.7841 85.5084 19.4998C86.197 20.2155 87.028 20.5708 88.0091 20.5708C88.9903 20.5708 89.8213 20.2129 90.5099 19.4998C91.1959 18.7841 91.5402 17.9377 91.5402 16.9608Z" fill="#74543C"/>
<path d="M23.2857 32.3879C23.2857 33.2996 23.063 34.1746 22.6152 35.0105C22.1673 35.849 21.559 36.4785 20.7849 36.9017C19.9669 37.3536 18.8071 37.5782 17.3108 37.5782H14.8955V27.1401H17.2694C19.2084 27.1401 20.64 27.545 21.5616 28.3522C22.1078 28.8328 22.5323 29.4336 22.8326 30.1572C23.1329 30.8807 23.2857 31.6252 23.2857 32.3853V32.3879ZM21.3493 32.3879C21.3493 31.9073 21.2535 31.4371 21.0593 30.9774C20.8652 30.5176 20.5908 30.131 20.2335 29.8202C19.9306 29.5485 19.5708 29.3448 19.154 29.2142C18.7346 29.0836 18.3748 29.0052 18.0745 28.9817C17.7742 28.9582 17.36 28.9477 16.8319 28.9477V35.7759H17.2409C18.3334 35.7759 19.1799 35.6061 19.7831 35.2691C20.2724 34.9974 20.6555 34.5978 20.9351 34.0701C21.2121 33.5425 21.3519 32.9835 21.3519 32.3905L21.3493 32.3879Z" fill="#74543C"/>
<path d="M30.3731 37.5782H24.7529V27.1401H30.3731V28.9451H26.6867V31.4972H30.2178V33.3022H26.6867V35.7706H30.3731V37.5756V37.5782Z" fill="#74543C"/>
<path d="M37.3787 37.5782H32.2529V27.1401H34.1867V35.7732H37.3787V37.5782Z" fill="#74543C"/>
<path d="M52.2227 30.1157H50.0196C49.2301 29.1936 48.2955 28.7338 47.2238 28.7338C46.2815 28.7338 45.4789 29.0995 44.8162 29.8283C44.1535 30.5571 43.8195 31.3956 43.8195 32.3464C43.8195 33.2972 44.1613 34.1514 44.8447 34.8854C45.5281 35.6194 46.3436 35.9851 47.2963 35.9851C48.2489 35.9851 49.1239 35.5489 49.9238 34.6738H52.1683C51.7722 35.6142 51.125 36.3691 50.2267 36.9386C49.3284 37.508 48.3654 37.7927 47.3377 37.7927C45.8414 37.7927 44.5573 37.2546 43.4882 36.1784C42.419 35.1022 41.8857 33.8171 41.8857 32.3203C41.8857 30.8236 42.4164 29.5776 43.483 28.5196C44.547 27.4617 45.8181 26.9341 47.2963 26.9341C48.3706 26.9341 49.3517 27.2214 50.2423 27.7935C51.1328 28.3681 51.7929 29.1439 52.2278 30.1209L52.2227 30.1157Z" fill="#74543C"/>
<path d="M60.6823 33.7697C60.6823 34.8224 60.4804 35.6453 60.074 36.2382C59.7245 36.7267 59.2715 37.1081 58.7123 37.3797C58.1531 37.6514 57.5655 37.7898 56.9545 37.7898C56.3436 37.7898 55.7715 37.6592 55.2097 37.3954C54.6505 37.1316 54.1949 36.7659 53.848 36.2957C53.4157 35.721 53.1982 34.8799 53.1982 33.7697V27.1401H55.132V33.7697C55.132 35.2456 55.7352 35.9848 56.939 35.9848C58.1428 35.9848 58.7459 35.2456 58.7459 33.7697V27.1401H60.6797V33.7697H60.6823Z" fill="#74543C"/>
<path d="M67.6023 37.5782H62.4766V27.1401H64.4104V35.7732H67.6023V37.5782Z" fill="#74543C"/>
<path d="M72.8706 28.9451H70.9213V37.5782H68.9875V28.9451H67.0537V27.1401H72.8732V28.9451H72.8706Z" fill="#74543C"/>
<path d="M75.8498 37.5782H73.916V27.1401H75.8498V37.5782Z" fill="#74543C"/>
<path d="M86.6685 27.1401L82.6145 37.5782H81.0328L76.9658 27.1401H79.0006L81.7964 35.081H81.8249L84.6363 27.1401H86.6711H86.6685Z" fill="#74543C"/>
<path d="M98.1368 32.3881C98.1368 33.8822 97.6009 35.1569 96.5343 36.2096C95.4652 37.2623 94.1786 37.79 92.6719 37.79C91.1652 37.79 89.8786 37.2623 88.8095 36.2096C87.7403 35.1569 87.207 33.8822 87.207 32.3881C87.207 30.8939 87.7377 29.5853 88.8017 28.5221C89.8657 27.459 91.1549 26.9287 92.6719 26.9287C94.1889 26.9287 95.4781 27.459 96.5421 28.5221C97.6061 29.5853 98.1393 30.873 98.1393 32.3881H98.1368ZM96.203 32.3724C96.203 31.3746 95.8612 30.5204 95.1778 29.8047C94.4944 29.0889 93.6582 28.7337 92.6719 28.7337C91.6856 28.7337 90.8468 29.0916 90.166 29.8047C89.4825 30.5204 89.1408 31.3746 89.1408 32.3724C89.1408 33.3702 89.4851 34.1957 90.1712 34.9114C90.8598 35.6271 91.6908 35.9824 92.6719 35.9824C93.653 35.9824 94.484 35.6245 95.1726 34.9114C95.8587 34.1957 96.203 33.3493 96.203 32.3724Z" fill="#74543C"/>
<path d="M111.836 32.3879C111.836 33.2996 111.614 34.1746 111.166 35.0105C110.718 35.849 110.11 36.4785 109.336 36.9017C108.518 37.3536 107.358 37.5782 105.862 37.5782H103.446V27.1401H105.82C107.759 27.1401 109.191 27.545 110.112 28.3522C110.659 28.8328 111.083 29.4336 111.383 30.1572C111.684 30.8807 111.836 31.6252 111.836 32.3853V32.3879ZM109.903 32.3879C109.903 31.9073 109.807 31.4371 109.613 30.9774C109.419 30.5176 109.144 30.131 108.787 29.8202C108.484 29.5485 108.124 29.3448 107.707 29.2142C107.288 29.0836 106.928 29.0052 106.628 28.9817C106.328 28.9582 105.913 28.9477 105.385 28.9477V35.7759H105.794C106.887 35.7759 107.733 35.6061 108.336 35.2691C108.826 34.9974 109.209 34.5978 109.488 34.0701C109.765 33.5425 109.905 32.9835 109.905 32.3905L109.903 32.3879Z" fill="#74543C"/>
<path d="M118.927 37.5782H113.307V27.1401H118.927V28.9451H115.24V31.4972H118.772V33.3022H115.24V35.7706H118.927V37.5756V37.5782Z" fill="#74543C"/>
<path d="M74.4501 18.4471C74.406 18.3974 74.3594 18.3504 74.3154 18.3008C74.3905 18.3217 74.463 18.3452 74.5381 18.3661L74.4501 18.4471Z" fill="white"/>
</svg>
