<?xml version="1.0" encoding="UTF-8"?>
<svg id="Capa_1" data-name="Capa 1" xmlns="http://www.w3.org/2000/svg" viewBox="0 0 1154.15 444.95">
  <defs>
    <style>
      .cls-1 {
        fill: #98272c;
      }

      .cls-1, .cls-2, .cls-3, .cls-4, .cls-5, .cls-6, .cls-7, .cls-8, .cls-9, .cls-10, .cls-11, .cls-12, .cls-13, .cls-14, .cls-15 {
        stroke-width: 0px;
      }

      .cls-2 {
        fill: #7d9552;
      }

      .cls-3 {
        fill: #bc3c3d;
      }

      .cls-4, .cls-16, .cls-17, .cls-18, .cls-19, .cls-20 {
        fill: none;
      }

      .cls-16 {
        stroke-width: .65px;
      }

      .cls-16, .cls-17, .cls-18, .cls-19, .cls-20 {
        stroke-miterlimit: 10;
      }

      .cls-16, .cls-20 {
        stroke: #5a783f;
      }

      .cls-5 {
        fill: #6d2e25;
      }

      .cls-6 {
        fill: #71563d;
      }

      .cls-7 {
        fill: #bc3d3c;
      }

      .cls-8 {
        fill: #551b1d;
      }

      .cls-9 {
        fill: #718742;
      }

      .cls-17 {
        stroke: #536e3b;
      }

      .cls-17, .cls-20 {
        stroke-width: 1.04px;
      }

      .cls-18 {
        stroke: #2e4227;
        stroke-width: 1.93px;
      }

      .cls-19 {
        stroke: #5b7940;
        stroke-width: 2.07px;
      }

      .cls-10 {
        fill: #778f44;
      }

      .cls-11 {
        fill: #3d2d1c;
      }

      .cls-12 {
        fill: #fff;
      }

      .cls-13 {
        fill: #4d3b2a;
      }

      .cls-14 {
        fill: #6b904b;
      }

      .cls-15 {
        fill: #d38b3e;
      }
    </style>
  </defs>
  <path class="cls-11" d="M459.86,274.5c-4.83,19.56-15.04,35.31-30.65,47.25-15.61,11.95-33.6,17.91-53.96,17.91-24.43,0-45.24-8.32-62.44-24.97-17.19-16.64-25.79-37.06-25.79-61.24s8.52-44.52,25.56-61.02c17.04-16.49,37.78-24.74,62.21-24.74,15.23,0,29.26,3.36,42.08,10.08,12.82,6.72,23.38,16.35,31.67,28.89,6.03,8.96,9.8,17.99,11.31,27.09h-44.79c-3.32-8.66-8.6-15.64-15.84-20.94-7.24-5.3-15.46-7.95-24.66-7.95-13.12,0-23.87,4.74-32.24,14.22-8.37,9.48-12.56,20.86-12.56,34.15s4.19,24.82,12.56,34.6c8.37,9.78,19.19,14.67,32.46,14.67,9.05,0,17.04-2.54,23.98-7.61,6.93-5.07,12.36-11.87,16.29-20.38h44.79Z"/>
  <path class="cls-11" d="M627.27,336.53h-46.38l-8.14-23.96h-58.14l-8.82,23.96h-45.93l67.19-165.71h33.71l66.51,165.71ZM561.44,278.98l-17.19-56.65h-.68l-17.19,56.65h35.07Z"/>
  <path class="cls-11" d="M735.86,207.99h-50.45v28.22h48.64v37.17h-48.64v63.15h-40.95v-165.71h91.4v37.17Z"/>
  <path class="cls-11" d="M851.92,336.53h-92.98v-165.71h92.98v37.17h-52.03v25.75h50.45v37.17h-50.45v28.44h52.03v37.17ZM841.28,138.35l-55.65,24.41-10.63-21.94,54.29-28.89,11.99,26.42Z"/>
  <g>
    <path class="cls-6" d="M325.31,59.67h-8.51c-3.05-3.53-6.66-5.29-10.8-5.29-3.64,0-6.74,1.4-9.3,4.19-2.56,2.79-3.85,6-3.85,9.64s1.32,6.91,3.96,9.72c2.64,2.81,5.79,4.21,9.47,4.21s7.06-1.67,10.15-5.02h8.67c-1.53,3.6-4.03,6.49-7.5,8.67-3.47,2.18-7.19,3.27-11.16,3.27-5.78,0-10.74-2.06-14.87-6.18-4.13-4.12-6.19-9.04-6.19-14.77s2.05-10.5,6.17-14.55c4.11-4.05,9.02-6.07,14.73-6.07,4.15,0,7.94,1.1,11.38,3.29,3.44,2.2,5.99,5.17,7.67,8.91Z"/>
    <path class="cls-6" d="M370.1,68.36c0,5.72-2.07,10.6-6.19,14.63-4.13,4.03-9.1,6.05-14.92,6.05s-10.79-2.02-14.92-6.05c-4.13-4.03-6.19-8.91-6.19-14.63s2.05-10.73,6.16-14.8c4.11-4.07,9.09-6.1,14.95-6.1s10.84,2.03,14.95,6.1c4.11,4.07,6.17,9,6.17,14.8ZM362.63,68.31c0-3.82-1.32-7.09-3.96-9.83-2.64-2.74-5.87-4.1-9.68-4.1s-7.05,1.37-9.68,4.1c-2.64,2.74-3.96,6.01-3.96,9.83s1.33,6.98,3.98,9.72c2.66,2.74,5.87,4.1,9.66,4.1s7-1.37,9.66-4.1c2.65-2.74,3.98-5.98,3.98-9.72Z"/>
    <path class="cls-6" d="M408.51,88.24h-8.35l-16.86-29.05h-.11v29.05h-7.47v-39.96h8.51l16.69,29.05h.11v-29.05h7.47v39.96Z"/>
    <path class="cls-6" d="M456.85,68.74c0,5.62-2.13,10.4-6.38,14.36-4.26,3.96-9.26,5.94-15,5.94s-11.03-2.01-15.3-6.02c-4.27-4.01-6.41-8.94-6.41-14.77s2.13-10.66,6.38-14.71c4.25-4.05,9.29-6.07,15.11-6.07,4.15,0,8.11,1.16,11.89,3.48,3.78,2.32,6.35,5.34,7.69,9.04h-8.95c-1.16-1.76-2.72-3.14-4.66-4.13-1.95-.99-3.99-1.49-6.14-1.49-3.89,0-7.17,1.36-9.85,4.08-2.67,2.72-4.01,6-4.01,9.86,0,1.8.38,3.6,1.15,5.4,1.13,2.67,2.85,4.73,5.16,6.21,2.31,1.48,4.96,2.21,7.94,2.21,2.54,0,4.88-.66,7.01-1.97,2.13-1.31,3.77-3.1,4.94-5.37h-16.91v-6.91h26.35v.86Z"/>
    <path class="cls-6" d="M488.93,88.24h-9.06l-10.69-15.28h-.11v15.28h-7.47v-39.96h12.38c4.29,0,7.56.9,9.82,2.7,3.16,2.52,4.75,5.74,4.75,9.67,0,1.73-.35,3.46-1.04,5.21-.69,1.75-1.64,3.2-2.84,4.35-1.64,1.51-3.87,2.61-6.71,3.29l10.97,14.74ZM481.07,61.24c0-1.94-.69-3.44-2.07-4.48-1.38-1.04-3.09-1.57-5.13-1.57h-4.8v12.2h4.8c2.11,0,3.84-.52,5.18-1.57,1.35-1.04,2.02-2.57,2.02-4.59Z"/>
    <path class="cls-6" d="M514.78,88.24h-21.71v-39.96h21.71v6.91h-14.24v9.77h13.64v6.91h-13.64v9.45h14.24v6.91Z"/>
    <path class="cls-6" d="M545.01,76.3c0,3.74-1.24,6.8-3.71,9.18-2.47,2.38-5.6,3.56-9.38,3.56s-6.66-1.16-9.17-3.48c-2.51-2.32-3.84-5.25-3.98-8.78h7.86c.14,1.58.68,2.87,1.61,3.86s2.17,1.49,3.74,1.49,2.79-.47,3.9-1.4c1.11-.94,1.66-2.14,1.66-3.62,0-.61-.07-1.18-.22-1.7-.15-.52-.39-.99-.74-1.4s-.65-.76-.93-1.03c-.27-.27-.71-.55-1.31-.84s-1.06-.5-1.39-.62c-.33-.13-.86-.32-1.61-.59-.75-.27-1.25-.46-1.5-.57-1.85-.72-3.07-1.22-3.66-1.51-3.96-2.05-5.95-5.38-5.95-9.99,0-3.28,1.14-5.99,3.41-8.15s5.08-3.24,8.43-3.24,6.04,1.09,8.29,3.27c2.25,2.18,3.47,4.89,3.66,8.13h-7.64c-.25-2.99-1.76-4.48-4.53-4.48-1.2,0-2.19.38-2.97,1.13-.78.76-1.17,1.73-1.17,2.92,0,.47.06.9.19,1.3.13.4.26.74.41,1.03.14.29.4.58.76.86.36.29.65.5.85.65.2.14.56.32,1.09.54.53.22.88.36,1.06.43.18.07.59.21,1.23.41.64.2,1.01.32,1.12.35,3.38,1.12,5.99,2.63,7.83,4.54,1.84,1.91,2.75,4.5,2.75,7.78Z"/>
    <path class="cls-6" d="M590.51,68.36c0,5.72-2.07,10.6-6.19,14.63-4.13,4.03-9.1,6.05-14.92,6.05s-10.79-2.02-14.92-6.05c-4.13-4.03-6.19-8.91-6.19-14.63s2.05-10.73,6.16-14.8c4.11-4.07,9.09-6.1,14.95-6.1s10.84,2.03,14.95,6.1c4.11,4.07,6.17,9,6.17,14.8ZM583.03,68.31c0-3.82-1.32-7.09-3.96-9.83-2.64-2.74-5.87-4.1-9.68-4.1s-7.05,1.37-9.68,4.1c-2.64,2.74-3.96,6.01-3.96,9.83s1.33,6.98,3.98,9.72c2.66,2.74,5.87,4.1,9.66,4.1s7-1.37,9.66-4.1c2.65-2.74,3.98-5.98,3.98-9.72Z"/>
    <path class="cls-6" d="M319.37,127.36c0,3.49-.86,6.84-2.59,10.04-1.73,3.21-4.08,5.62-7.07,7.24-3.16,1.73-7.64,2.59-13.42,2.59h-9.33v-39.96h9.17c7.49,0,13.02,1.55,16.58,4.64,2.11,1.84,3.75,4.14,4.91,6.91,1.16,2.77,1.75,5.62,1.75,8.53ZM311.89,127.36c0-1.84-.37-3.64-1.12-5.4-.75-1.76-1.81-3.24-3.19-4.43-1.17-1.04-2.56-1.82-4.17-2.32-1.62-.5-3.01-.8-4.17-.89-1.16-.09-2.76-.13-4.8-.13v26.14h1.58c4.22,0,7.49-.65,9.82-1.94,1.89-1.04,3.37-2.57,4.45-4.59,1.07-2.02,1.61-4.16,1.61-6.43Z"/>
    <path class="cls-6" d="M346.75,147.24h-21.71v-39.96h21.71v6.91h-14.24v9.77h13.64v6.91h-13.64v9.45h14.24v6.91Z"/>
    <path class="cls-6" d="M373.81,147.24h-19.8v-39.96h7.47v33.05h12.33v6.91Z"/>
    <path class="cls-6" d="M431.15,118.67h-8.51c-3.05-3.53-6.66-5.29-10.8-5.29-3.64,0-6.74,1.4-9.3,4.19-2.56,2.79-3.85,6-3.85,9.64s1.32,6.91,3.96,9.72c2.64,2.81,5.79,4.21,9.47,4.21s7.06-1.67,10.15-5.02h8.67c-1.53,3.6-4.03,6.49-7.5,8.67-3.47,2.18-7.19,3.27-11.16,3.27-5.78,0-10.74-2.06-14.87-6.18-4.13-4.12-6.19-9.04-6.19-14.77s2.05-10.5,6.17-14.55c4.11-4.05,9.02-6.07,14.73-6.07,4.15,0,7.94,1.1,11.38,3.29,3.44,2.2,5.99,5.17,7.67,8.91Z"/>
    <path class="cls-6" d="M463.83,132.66c0,4.03-.78,7.18-2.35,9.45-1.35,1.87-3.1,3.33-5.26,4.37s-4.43,1.57-6.79,1.57-4.57-.5-6.74-1.51c-2.16-1.01-3.92-2.41-5.26-4.21-1.67-2.2-2.51-5.42-2.51-9.67v-25.38h7.47v25.38c0,5.65,2.33,8.48,6.98,8.48s6.98-2.83,6.98-8.48v-25.38h7.47v25.38Z"/>
    <path class="cls-6" d="M490.56,147.24h-19.8v-39.96h7.47v33.05h12.33v6.91Z"/>
    <path class="cls-6" d="M510.91,114.19h-7.53v33.05h-7.47v-33.05h-7.47v-6.91h22.48v6.91Z"/>
    <path class="cls-6" d="M522.42,147.24h-7.47v-39.96h7.47v39.96Z"/>
    <path class="cls-6" d="M564.21,107.28l-15.66,39.96h-6.11l-15.71-39.96h7.86l10.8,30.4h.11l10.86-30.4h7.86Z"/>
    <path class="cls-6" d="M608.51,127.36c0,5.72-2.07,10.6-6.19,14.63-4.13,4.03-9.1,6.05-14.92,6.05s-10.79-2.02-14.92-6.05c-4.13-4.03-6.19-8.91-6.19-14.63s2.05-10.73,6.16-14.8c4.11-4.07,9.09-6.1,14.95-6.1s10.84,2.03,14.95,6.1c4.11,4.07,6.17,9,6.17,14.8ZM601.04,127.31c0-3.82-1.32-7.09-3.96-9.83-2.64-2.74-5.87-4.1-9.68-4.1s-7.05,1.37-9.68,4.1c-2.64,2.74-3.96,6.01-3.96,9.83s1.33,6.98,3.98,9.72c2.66,2.74,5.87,4.1,9.66,4.1s7-1.37,9.66-4.1c2.65-2.74,3.98-5.98,3.98-9.72Z"/>
    <path class="cls-6" d="M661.43,127.36c0,3.49-.86,6.84-2.59,10.04-1.73,3.21-4.08,5.62-7.07,7.24-3.16,1.73-7.64,2.59-13.42,2.59h-9.33v-39.96h9.17c7.49,0,13.02,1.55,16.58,4.64,2.11,1.84,3.75,4.14,4.91,6.91,1.16,2.77,1.75,5.62,1.75,8.53ZM653.96,127.36c0-1.84-.37-3.64-1.12-5.4-.75-1.76-1.81-3.24-3.19-4.43-1.17-1.04-2.56-1.82-4.17-2.32-1.62-.5-3.01-.8-4.17-.89-1.16-.09-2.76-.13-4.8-.13v26.14h1.58c4.22,0,7.49-.65,9.82-1.94,1.89-1.04,3.37-2.57,4.45-4.59,1.07-2.02,1.61-4.16,1.61-6.43Z"/>
    <path class="cls-6" d="M688.82,147.24h-21.71v-39.96h21.71v6.91h-14.24v9.77h13.64v6.91h-13.64v9.45h14.24v6.91Z"/>
  </g>
  <g>
    <path class="cls-4" d="M964.33,259.83c-13.59,6.1-25.89,13.8-35.3,25.59-9,11.28-13.65,23.97-13.21,37.76,3.87-7.15,7.11-15.07,12.01-21.81,11.76-16.18,28.88-25.02,47.01-32.08,5.76-2.24,11.3-4.82,16.52-7.86-4.18-2.47-8.26-5.29-12.23-8.48-4.88,2.39-9.84,4.65-14.79,6.87Z"/>
    <path class="cls-13" d="M1031.38,274.05c-14.44-1.17-27.71-5.36-40.03-12.62-5.22,3.03-10.76,5.61-16.52,7.86-18.13,7.06-35.25,15.9-47.01,32.08-4.9,6.74-8.14,14.67-12.01,21.81-.44-13.79,4.21-26.48,13.21-37.76,9.41-11.79,21.71-19.49,35.3-25.59,4.95-2.22,9.91-4.48,14.79-6.87-6.25-5.01-12.25-10.89-18.02-17.71-7.2-8.51-12.85-17.44-16.96-26.72-5.4,3.52-10.54,7.48-15.44,11.77-17.57,17.11-29.77,35.79-33.19,59.16-5.3,36.24,18.79,62.27,55.37,59.88,21.58-1.41,40.2-10.36,56.48-24.16,13.78-11.68,24.71-25.12,31.23-40.94-2.37.06-4.77,0-7.2-.19Z"/>
    <path class="cls-6" d="M984.83,250.06c3.86,2.93,7.88,5.56,12.1,7.86h0c10.44,5.69,22.01,9.33,34.98,10.38,3.02.24,5.98.28,8.85.1,27.55-1.67,46.93-22.18,47.27-51.41.3-25.97-11.07-47.1-26.73-65.07-16.95-17.37-35.52-29.38-58.87-32.55-36.23-4.93-62.52,19.41-60.5,55.94.59,10.79,3.09,20.83,7.15,30.18,4.04,9.31,9.63,17.96,16.44,26.01,5.95,7.02,12.35,13.27,19.31,18.57M1043.19,227.96c7.55,9.5,16.94,17.06,29.28,21.27-10.13.4-19.17-2.14-27.35-7.05-2.47-1.49-4.86-3.17-7.16-5.06-5.25-4.3-9.68-9.15-13.49-14.44h0c-1.03-1.42-2.01-2.88-2.95-4.36h0c-3.89-6.15-7.06-12.79-9.73-19.79-.42-1.13-.86-2.24-1.31-3.36-6.68-16.79-15.26-32.42-30.32-43.28-6.69-4.83-14.59-7.99-21.7-11.78,13.8-.57,26.45,3.94,37.65,12.81,11.7,9.29,19.29,21.5,25.25,35.02,2.61,5.91,5.27,11.82,8.15,17.6,0,0,0,0,0,0,1.84,3.7,3.78,7.34,5.86,10.9,2.38,4.06,4.97,7.92,7.81,11.5"/>
  </g>
  <path class="cls-12" d="M517.01,74c-.17-.19-.35-.37-.52-.56.29.08.57.17.86.25l-.34.31Z"/>
  <g>
    <path class="cls-19" d="M211.09,215.62c3.45-1.66,6.51-4.14,8.88-7.22,2.22-2.87,3.82-6.22,5.04-9.71,3.33-9.52,3.8-20.2,1.33-30.22"/>
    <path class="cls-9" d="M208.35,171.45s-4.9-51.25-20.17-55.36c-15.27-4.11-59.34.4-71.58,27.97-12.24,27.57-8.99,44.79,20.7,37.96,29.69-6.83,51.53,11.29,71.05-10.58Z"/>
    <g>
      <g>
        <path class="cls-14" d="M204.11,193.77s-75.64-20.06-100.62,14.88c-24.98,34.94-38,106.61-38,106.61,0,0,53.57-23.9,61.44-33.71,27.62-34.42,67.85-47.16,72.51-67.47l4.66-20.31Z"/>
        <path class="cls-20" d="M65.5,315.26s31.95-84.01,50.07-94.46c18.11-10.45,88.55-27.03,88.55-27.03"/>
        <path class="cls-20" d="M152.33,207.43c2.42,16.57-1.13,36.1-4.42,52.3"/>
        <path class="cls-20" d="M124.69,282.34c6.55-19.82,4.09-44.35-5.28-63.5"/>
        <path class="cls-20" d="M112.92,199.5c1.71-.71,3.69-.24,5.5.32,7.47,2.33,22.51,11.63,22.49,11.1"/>
        <path class="cls-20" d="M142.21,189.38c1.35-.05,2.66.54,3.91,1.16,7.16,3.54,13.92,8.01,20.06,13.28"/>
      </g>
      <path class="cls-20" d="M87.91,239.66c2.65,1.05,8.14,1.66,10.79,2.71,1.6,16.97,7.91,37.78,2.95,53.78"/>
    </g>
    <g>
      <g>
        <path class="cls-10" d="M226.58,172.78s-27.8-42.41-13.95-65.58c13.85-23.17,50.68-47.05,50.68-47.05,0,0-1.42,38.44-5.12,45.48-12.97,24.7-11.16,52.41-21.38,59.78l-10.22,7.37Z"/>
        <path class="cls-16" d="M263.31,60.16s-39.49,38.32-41.28,51.84c-1.79,13.52,4.56,60.79,4.56,60.79"/>
        <path class="cls-16" d="M222.72,137.7c9.72-2.16,19.75-8.66,28-14.27"/>
        <path class="cls-16" d="M258.13,104.06c-9.54,8.43-23.67,12.32-36.34,10.74"/>
        <path class="cls-16" d="M209.64,115.05c-.02,1.22.68,2.34,1.39,3.33,2.94,4.11,11.41,11.37,11.11,11.47"/>
        <path class="cls-16" d="M210.5,135.42c.27.85.89,1.53,1.5,2.16,3.54,3.65,7.51,6.85,11.78,9.49"/>
      </g>
      <path class="cls-16" d="M226.37,90.71c1.17,1.41,2.72,4.67,3.88,6.08,9.75-2.75,22.67-3.44,30.45-10.04"/>
    </g>
    <g>
      <path class="cls-14" d="M234.54,373.77c-4.28.56-22.79-10.89-27.51-16.38-4.73-5.48-19.16-33.1-20.29-43.64-1.13-10.54-8.82-25.81-9.4-35.91-.58-10.1-.28-8.11-1.7-23.69-1.43-15.59,29.76-71.59,29.76-71.59l-.48.06s46.83,45.75,50.16,61.08c3.33,15.34,3.02,13.34,5.51,23.19,2.48,9.85-.29,26.5,1.79,36.91,2.09,10.41-3.46,40.65-6.34,47.14-2.89,6.49-17.21,22.25-21.49,22.82Z"/>
      <line class="cls-17" x1="205.16" y1="182.6" x2="234.78" y2="373.74"/>
      <path class="cls-17" d="M213.66,236.33c-.55-2.4,44.15,18.77,44.8,21.33"/>
      <path class="cls-17" d="M218.34,268.34c-.68-6,43.37,22.08,43.44,25.34"/>
      <path class="cls-17" d="M223.89,302.91c-.12-2.63,38.21,17.42,38.05,19.98"/>
      <path class="cls-17" d="M228.68,334.08c-.12-2.63,27.74,14.28,27.58,16.84"/>
      <path class="cls-18" d="M209.1,208.28c-.12-2.63,35.64,14.89,35.49,17.46"/>
      <path class="cls-17" d="M213.85,236.37c-.2-2.44-36.75,29.41-36.6,32.03"/>
      <path class="cls-17" d="M219,268.32c-1.16-5.93-34.99,32.38-34.09,35.54"/>
      <path class="cls-17" d="M224.08,302.95c-.67-2.56-31.45,26.58-30.53,29"/>
      <path class="cls-17" d="M228.87,334.13c-.67-2.56-22.34,20.86-21.42,23.29"/>
      <path class="cls-18" d="M209.77,208.26c-.67-2.56-29.74,23.49-28.82,25.91"/>
    </g>
    <g>
      <path class="cls-1" d="M197.2,238.84c-4.77-9.41-1.46-20.81,7.4-25.47,8.86-4.65,19.91-.8,24.68,8.61,4.77,9.41,1.46,20.81-7.4,25.47-8.86,4.65-19.91.8-24.68-8.61Z"/>
      <path class="cls-7" d="M195.31,236.18c-4.77-9.41-1.46-20.81,7.4-25.47s19.91-.8,24.68,8.61c4.77,9.41,1.46,20.81-7.4,25.47-8.86,4.65-19.91.8-24.68-8.61Z"/>
      <path class="cls-15" d="M169.38,231.87c-4.77-9.41-1.46-20.81,7.4-25.47,8.86-4.65,19.91-.8,24.68,8.61,4.77,9.41,1.46,20.81-7.4,25.47s-19.91.8-24.68-8.61Z"/>
      <ellipse class="cls-5" cx="189.56" cy="233.79" rx="4.89" ry="2.75" transform="translate(-87.76 116.81) rotate(-28.09)"/>
      <ellipse class="cls-8" cx="222.35" cy="237.98" rx="4.89" ry="2.75" transform="translate(-85.87 132.74) rotate(-28.09)"/>
      <g>
        <path class="cls-3" d="M217.46,214.21c-4.77-9.41-1.46-20.81,7.4-25.47,8.86-4.65,19.91-.8,24.68,8.61,4.77,9.41,1.46,20.81-7.4,25.47-8.86,4.65-19.91.8-24.68-8.61Z"/>
        <ellipse class="cls-8" cx="237.7" cy="214.07" rx="4.89" ry="2.75" transform="translate(-72.8 137.16) rotate(-28.09)"/>
      </g>
      <path class="cls-1" d="M186.7,181.85c-7.41-7.37-7.9-19.4-1.09-26.88,6.81-7.48,18.33-7.57,25.74-.2,7.41,7.37,7.9,19.4,1.09,26.88-6.81,7.48-18.33,7.57-25.74.2Z"/>
      <path class="cls-2" d="M189.44,212.47c-7.41-7.37-7.9-19.4-1.09-26.88,6.81-7.48,18.33-7.57,25.74-.2,7.41,7.37,7.9,19.4,1.09,26.88-6.81,7.48-18.33,7.57-25.74.2Z"/>
      <path class="cls-3" d="M159.64,206.23c-7.41-7.37-7.9-19.4-1.09-26.88,6.81-7.48,18.33-7.57,25.74-.2,7.41,7.37,7.9,19.4,1.09,26.88-6.81,7.48-18.33,7.57-25.74.2Z"/>
      <ellipse class="cls-5" cx="179.78" cy="202.38" rx="4.94" ry="2.72" transform="translate(-90.91 204.28) rotate(-48.79)"/>
      <ellipse class="cls-8" cx="209.91" cy="172.43" rx="4.94" ry="2.72" transform="translate(-58.11 216.73) rotate(-48.79)"/>
      <ellipse class="cls-5" cx="210.98" cy="208.08" rx="4.94" ry="2.72" transform="translate(-84.56 229.7) rotate(-48.79)"/>
    </g>
    <path class="cls-16" d="M128.66,129.57c6.64-1.69,13.84-.21,20.18,2.83s11.96,7.54,17.4,12.16c6.17,5.24,12.36,10.91,15.85,18.34"/>
    <path class="cls-16" d="M173.13,149.92c2.87-12.29,8.51-23.78,16.34-33.28"/>
    <path class="cls-16" d="M151.83,132.23c1.15-6.12,4.31-11.75,8.84-15.73"/>
    <path class="cls-16" d="M141.99,130.75c-5.35,7.54-10.66,15.3-13.69,24.2-3.03,8.89-3.58,19.19.5,27.88.36-.83.71-1.66,1.07-2.48"/>
    <path class="cls-16" d="M161.33,141.64c-9.73,9.9-14.87,24.53-13.69,38.94.22-.4.45-.81.67-1.21"/>
  </g>
  <g>
    <path class="cls-13" d="M732.91,396.85h-22.67v-3.28l18.02-29.69h-17.47v-3.28h21.58v3.28l-17.97,29.69h18.51v3.28Z"/>
    <path class="cls-13" d="M763.8,383.42c0,3.85-1.39,7.16-4.18,9.92-2.79,2.76-6.13,4.14-10.02,4.14s-7.14-1.37-9.93-4.12c-2.79-2.74-4.18-5.99-4.18-9.75s1.37-7.23,4.11-10.04c2.74-2.81,6.07-4.21,10-4.21s7.19,1.39,10,4.17c2.81,2.78,4.21,6.08,4.21,9.9ZM760.34,383.27c0-2.94-1.05-5.48-3.14-7.62s-4.61-3.21-7.55-3.21-5.54,1.1-7.6,3.31-3.09,4.81-3.09,7.82,1.04,5.48,3.12,7.62c2.08,2.14,4.6,3.21,7.57,3.21s5.62-1.09,7.65-3.26c2.03-2.17,3.04-4.79,3.04-7.86Z"/>
    <path class="cls-13" d="M792.86,396.85h-3.46v-14.75c0-3.3-.86-5.75-2.57-7.35-1.65-1.54-3.61-2.3-5.89-2.3s-4.24.77-5.89,2.3c-1.68,1.57-2.53,3.94-2.53,7.1v14.99h-3.46v-26.8h3.46v3.43h.1c.86-1.34,2.04-2.36,3.54-3.06,1.5-.7,3.09-1.05,4.78-1.05,3.79,0,6.73,1.17,8.81,3.5,2.08,2.34,3.12,5.41,3.12,9.24v14.75Z"/>
    <path class="cls-13" d="M826.77,396.85h-3.46v-4.7h-.1c-1.15,1.73-2.66,3.05-4.53,3.97s-3.87,1.37-6.01,1.37c-4.09,0-7.54-1.35-10.35-4.04-2.8-2.7-4.21-6.05-4.21-10.07s1.42-7.32,4.26-10c2.84-2.68,6.27-4.02,10.3-4.02,2.18,0,4.2.46,6.06,1.37,1.86.92,3.36,2.25,4.48,4.02h.1v-4.7h3.46v26.8ZM820.36,391.19c2.1-2.14,3.14-4.71,3.14-7.72s-1.05-5.59-3.14-7.77c-2.1-2.17-4.66-3.26-7.7-3.26-3.2,0-5.85,1.05-7.95,3.16-2.1,2.11-3.14,4.75-3.14,7.91s1.06,5.73,3.17,7.79c2.11,2.06,4.75,3.09,7.92,3.09s5.6-1.07,7.7-3.21Z"/>
    <path class="cls-13" d="M866.43,396.85h-18.81v-36.26h3.66v32.98h15.15v3.28Z"/>
    <path class="cls-13" d="M896.82,383.42c0,3.85-1.39,7.16-4.18,9.92-2.79,2.76-6.13,4.14-10.03,4.14s-7.14-1.37-9.93-4.12c-2.79-2.74-4.18-5.99-4.18-9.75s1.37-7.23,4.11-10.04c2.74-2.81,6.07-4.21,10-4.21s7.2,1.39,10,4.17c2.8,2.78,4.21,6.08,4.21,9.9ZM893.35,383.27c0-2.94-1.05-5.48-3.14-7.62-2.1-2.14-4.61-3.21-7.55-3.21s-5.54,1.1-7.6,3.31c-2.06,2.21-3.09,4.81-3.09,7.82s1.04,5.48,3.12,7.62c2.08,2.14,4.61,3.21,7.57,3.21s5.62-1.09,7.65-3.26c2.03-2.17,3.04-4.79,3.04-7.86Z"/>
    <path class="cls-13" d="M916.87,389.3c0,2.55-.78,4.55-2.33,6-1.55,1.45-3.62,2.18-6.19,2.18-2.41,0-4.4-.78-5.96-2.33-1.57-1.55-2.35-3.54-2.35-5.95v-.29h3.46c.03,1.63.45,2.96,1.26,3.97.81,1.01,2,1.52,3.59,1.52s2.78-.42,3.69-1.25c.91-.83,1.36-2.02,1.36-3.55,0-1.31-.43-2.36-1.29-3.16-.86-.8-1.91-1.42-3.14-1.86-1.24-.44-2.47-.91-3.71-1.4s-2.29-1.26-3.14-2.3c-.86-1.05-1.29-2.4-1.29-4.07,0-2.19.73-3.98,2.2-5.37,1.47-1.39,3.31-2.08,5.52-2.08,2.08,0,3.83.7,5.25,2.11,1.42,1.4,2.13,3.14,2.13,5.19h-3.46c-.07-1.21-.46-2.21-1.19-3.01-.73-.8-1.68-1.2-2.87-1.2s-2.13.38-2.92,1.15c-.79.77-1.19,1.72-1.19,2.87s.43,2.01,1.29,2.69c.86.69,1.91,1.24,3.14,1.67,1.24.43,2.48.9,3.71,1.42,1.24.52,2.29,1.37,3.14,2.55.86,1.18,1.29,2.68,1.29,4.51Z"/>
    <path class="cls-13" d="M955.19,386.85c0,3.01-1.08,5.53-3.24,7.57-2.16,2.04-4.76,3.06-7.8,3.06-3.27,0-5.96-.99-8.07-2.96-2.11-1.98-3.19-4.58-3.22-7.82h3.66c.1,2.25.82,4.07,2.18,5.44s3.17,2.06,5.45,2.06c2.05,0,3.79-.69,5.22-2.08,1.44-1.39,2.15-3.09,2.15-5.12,0-2.19-.73-3.84-2.18-4.95-1.45-1.11-3.45-2.04-5.99-2.79-1.52-.46-2.77-.89-3.74-1.3-.97-.41-1.95-.96-2.92-1.67-.97-.7-1.69-1.6-2.15-2.7-.46-1.09-.69-2.39-.69-3.9,0-2.81,1-5.14,3-6.98,2-1.84,4.43-2.77,7.3-2.77s5.24.94,7.2,2.82,2.95,4.22,2.95,7.03h-3.66c0-1.76-.64-3.3-1.91-4.61-1.27-1.31-2.8-1.96-4.58-1.96s-3.42.6-4.7,1.79-1.93,2.7-1.93,4.53c0,.69.08,1.3.25,1.84.16.54.45,1.02.87,1.45s.78.78,1.09,1.05c.31.28.83.56,1.56.86s1.25.5,1.56.61c.31.11.91.29,1.78.54s1.41.4,1.61.46c5.97,1.8,8.96,5.29,8.96,10.49Z"/>
    <path class="cls-13" d="M988.15,396.85h-3.46v-4.7h-.1c-1.15,1.73-2.66,3.05-4.53,3.97s-3.87,1.37-6.01,1.37c-4.09,0-7.54-1.35-10.35-4.04-2.8-2.7-4.21-6.05-4.21-10.07s1.42-7.32,4.26-10c2.84-2.68,6.27-4.02,10.3-4.02,2.18,0,4.2.46,6.06,1.37,1.86.92,3.36,2.25,4.48,4.02h.1v-4.7h3.46v26.8ZM981.74,391.19c2.1-2.14,3.14-4.71,3.14-7.72s-1.05-5.59-3.14-7.77c-2.1-2.17-4.66-3.26-7.7-3.26-3.2,0-5.85,1.05-7.95,3.16-2.1,2.11-3.14,4.75-3.14,7.91s1.06,5.73,3.17,7.79c2.11,2.06,4.75,3.09,7.92,3.09s5.6-1.07,7.7-3.21Z"/>
    <path class="cls-13" d="M1018.25,396.85h-3.46v-14.75c0-3.3-.86-5.75-2.57-7.35-1.65-1.54-3.62-2.3-5.89-2.3s-4.24.77-5.89,2.3c-1.68,1.57-2.52,3.94-2.52,7.1v14.99h-3.47v-26.8h3.47v3.43h.1c.86-1.34,2.04-2.36,3.54-3.06,1.5-.7,3.1-1.05,4.78-1.05,3.79,0,6.73,1.17,8.81,3.5,2.08,2.34,3.12,5.41,3.12,9.24v14.75Z"/>
    <path class="cls-13" d="M1037.76,373.13h-6.48v23.72h-3.47v-23.72h-5.69v-3.09h5.69v-9.46h3.47v9.46h6.48v3.09Z"/>
    <path class="cls-13" d="M1068.6,383.42c0,3.85-1.39,7.16-4.18,9.92-2.79,2.76-6.13,4.14-10.03,4.14s-7.14-1.37-9.93-4.12c-2.79-2.74-4.18-5.99-4.18-9.75s1.37-7.23,4.11-10.04c2.74-2.81,6.07-4.21,10-4.21s7.2,1.39,10,4.17c2.8,2.78,4.21,6.08,4.21,9.9ZM1065.13,383.27c0-2.94-1.05-5.48-3.14-7.62-2.1-2.14-4.61-3.21-7.55-3.21s-5.54,1.1-7.6,3.31c-2.06,2.21-3.09,4.81-3.09,7.82s1.04,5.48,3.12,7.62c2.08,2.14,4.61,3.21,7.57,3.21s5.62-1.09,7.65-3.26c2.03-2.17,3.04-4.79,3.04-7.86Z"/>
    <path class="cls-13" d="M1088.65,389.3c0,2.55-.78,4.55-2.33,6-1.55,1.45-3.62,2.18-6.19,2.18-2.41,0-4.4-.78-5.96-2.33-1.57-1.55-2.35-3.54-2.35-5.95v-.29h3.46c.03,1.63.45,2.96,1.26,3.97.81,1.01,2,1.52,3.59,1.52s2.78-.42,3.69-1.25c.91-.83,1.36-2.02,1.36-3.55,0-1.31-.43-2.36-1.29-3.16-.86-.8-1.91-1.42-3.14-1.86-1.24-.44-2.47-.91-3.71-1.4s-2.29-1.26-3.14-2.3c-.86-1.05-1.29-2.4-1.29-4.07,0-2.19.73-3.98,2.2-5.37,1.47-1.39,3.31-2.08,5.52-2.08,2.08,0,3.83.7,5.25,2.11,1.42,1.4,2.13,3.14,2.13,5.19h-3.46c-.07-1.21-.46-2.21-1.19-3.01-.73-.8-1.68-1.2-2.87-1.2s-2.13.38-2.92,1.15c-.79.77-1.19,1.72-1.19,2.87s.43,2.01,1.29,2.69c.86.69,1.91,1.24,3.14,1.67,1.24.43,2.48.9,3.71,1.42,1.24.52,2.29,1.37,3.14,2.55.86,1.18,1.29,2.68,1.29,4.51Z"/>
  </g>
  <rect class="cls-6" x="287.02" y="378.34" width="388.48" height="14.82"/>
</svg>